<svg width="40" height="81" viewBox="0 0 40 81" fill="none" xmlns="http://www.w3.org/2000/svg">
<path opacity="0.5" d="M7.37 10.675C7.37 15.785 11.43 20.02 18.185 20.02C25.045 20.02 29.105 15.785 29.105 10.675C29.105 5.355 24.94 1.19 18.185 1.19C11.325 1.19 7.37 5.355 7.37 10.675ZM8.945 10.675C8.945 8.12 12.375 6.895 18.185 6.895C23.96 6.895 27.53 8.12 27.53 10.64C27.53 12.95 23.855 14.315 18.185 14.315C12.27 14.315 8.945 12.95 8.945 10.675ZM9.575 22.9756L8 22.9756L8 34.3156L9.575 34.3156L9.575 31.1306L28.755 31.1306L26.585 22.4156L25.08 22.9056C25.64 24.5156 25.15 25.7756 22.77 25.7756L9.575 25.7756L9.575 22.9756Z" fill="white"/>
<path opacity="0.5" d="M10.6988 62.8764C10.6988 65.7964 13.0188 68.2164 16.8788 68.2164C20.7988 68.2164 23.1188 65.7964 23.1188 62.8764C23.1188 59.8364 20.7388 57.4564 16.8788 57.4564C12.9588 57.4564 10.6988 59.8364 10.6988 62.8764ZM11.5988 62.8764C11.5988 61.4164 13.5588 60.7164 16.8788 60.7164C20.1788 60.7164 22.2188 61.4164 22.2188 62.8564C22.2188 64.1764 20.1188 64.9564 16.8788 64.9564C13.4988 64.9564 11.5988 64.1764 11.5988 62.8764ZM10.7388 73.2453C10.7388 75.3853 11.6988 78.3453 14.3988 78.3453C15.9388 78.3453 17.4588 76.6853 17.5988 74.7053L17.6988 74.7053C17.9988 76.2053 18.9388 77.4853 20.5588 77.4853C21.9588 77.4853 23.1188 75.8653 23.1188 73.5653C23.1188 71.8253 22.4588 70.4453 21.8388 69.6853L19.4388 70.0053L19.5988 70.8853C21.1388 70.7253 22.1788 71.6453 22.1788 72.8053C22.1788 73.9653 21.2588 74.6053 20.4788 74.6053C19.3388 74.6053 18.3188 74.0053 18.0388 72.1853L17.2188 72.3053C16.9188 74.2853 15.6788 75.0853 14.4588 75.0853C13.0388 75.0853 11.6588 74.2853 11.6588 72.8253C11.6588 72.2253 11.9588 71.8453 12.3188 71.8453C12.8388 71.8453 12.9188 72.2253 13.5388 72.2253C14.1388 72.2253 14.5988 71.7053 14.5988 70.9853C14.5988 70.0853 13.9188 69.5853 13.2988 69.5853C11.6588 69.5853 10.7388 71.4053 10.7388 73.2453Z" fill="white"/>
<path opacity="0.5" d="M19.9177 48.4164L7.87272 43.5884L7.87272 44.5907L19.9177 49.3853L19.9177 48.4164Z" fill="white"/>
</svg>
