<svg width="39" height="20" viewBox="0 0 39 20" fill="none" xmlns="http://www.w3.org/2000/svg">
<circle cx="29" cy="10" r="9.625" transform="rotate(-180 29 10)" stroke="#F3C61C" stroke-width="0.75"/>
<path d="M31.2652 10.2652C31.4116 10.1187 31.4116 9.88128 31.2652 9.73484L28.8787 7.34835C28.7322 7.20191 28.4948 7.20191 28.3483 7.34835C28.2019 7.4948 28.2019 7.73224 28.3483 7.87868L30.4697 10L28.3483 12.1213C28.2019 12.2678 28.2019 12.5052 28.3483 12.6517C28.4948 12.7981 28.7322 12.7981 28.8787 12.6517L31.2652 10.2652ZM-3.27835e-08 10.375L31 10.375L31 9.625L3.27835e-08 9.625L-3.27835e-08 10.375Z" fill="#F3C61C"/>
</svg>
