<svg width="57" height="51" viewBox="0 0 57 51" fill="none" xmlns="http://www.w3.org/2000/svg">
<g filter="url(#filter0_d)">
<circle cx="31.5" cy="21.5" r="21.5" fill="white"/>
<circle cx="31" cy="22" r="9.625" transform="rotate(-180 31 22)" stroke="#F3C61C" stroke-width="0.75"/>
<path d="M33.2652 22.2652C33.4116 22.1187 33.4116 21.8813 33.2652 21.7348L30.8787 19.3484C30.7322 19.2019 30.4948 19.2019 30.3483 19.3484C30.2019 19.4948 30.2019 19.7322 30.3483 19.8787L32.4697 22L30.3483 24.1213C30.2019 24.2678 30.2019 24.5052 30.3483 24.6517C30.4948 24.7981 30.7322 24.7981 30.8787 24.6517L33.2652 22.2652ZM4 22.375L33 22.375L33 21.625L4 21.625L4 22.375Z" fill="#F3C61C"/>
</g>
<defs>
<filter id="filter0_d" x="0" y="0" width="57" height="51" filterUnits="userSpaceOnUse" color-interpolation-filters="sRGB">
<feFlood flood-opacity="0" result="BackgroundImageFix"/>
<feColorMatrix in="SourceAlpha" type="matrix" values="0 0 0 0 0 0 0 0 0 0 0 0 0 0 0 0 0 0 127 0"/>
<feOffset dy="4"/>
<feGaussianBlur stdDeviation="2"/>
<feColorMatrix type="matrix" values="0 0 0 0 0 0 0 0 0 0 0 0 0 0 0 0 0 0 0.25 0"/>
<feBlend mode="normal" in2="BackgroundImageFix" result="effect1_dropShadow"/>
<feBlend mode="normal" in="SourceGraphic" in2="effect1_dropShadow" result="shape"/>
</filter>
</defs>
</svg>
