<svg width="165" height="44" viewBox="0 0 165 44" fill="none" xmlns="http://www.w3.org/2000/svg">
<path d="M21.281 26.12C23.411 26.12 24.861 24.43 24.861 22.5C24.861 20.55 23.431 18.88 21.301 18.88C19.171 18.88 17.721 20.57 17.721 22.5C17.721 24.45 19.151 26.12 21.281 26.12ZM21.301 25.39C19.701 25.39 18.541 24.09 18.541 22.5C18.541 20.89 19.681 19.61 21.281 19.61C22.881 19.61 24.041 20.91 24.041 22.5C24.041 24.11 22.901 25.39 21.301 25.39ZM31.1271 26.26H31.9171V25.49C34.1771 25.49 35.4571 24.29 35.4571 22.47C35.4571 20.65 34.1671 19.46 31.9171 19.46V18.77H31.1271V19.46C28.8771 19.46 27.5871 20.65 27.5871 22.47C27.5871 24.29 28.8671 25.49 31.1271 25.49V26.26ZM31.1271 24.77C29.3971 24.77 28.4071 23.97 28.4071 22.48C28.4071 21 29.3971 20.18 31.1271 20.18V24.77ZM31.9171 24.77V20.18C33.6471 20.18 34.6371 21 34.6371 22.48C34.6371 23.97 33.6471 24.77 31.9171 24.77ZM41.7517 26.12C43.8817 26.12 45.3317 24.43 45.3317 22.5C45.3317 20.55 43.9017 18.88 41.7717 18.88C39.6417 18.88 38.1917 20.57 38.1917 22.5C38.1917 24.45 39.6217 26.12 41.7517 26.12ZM41.7717 25.39C40.1717 25.39 39.0117 24.09 39.0117 22.5C39.0117 20.89 40.1517 19.61 41.7517 19.61C43.3517 19.61 44.5117 20.91 44.5117 22.5C44.5117 24.11 43.3717 25.39 41.7717 25.39ZM48.4978 26H49.2878V23.53H50.9878C52.4778 23.53 53.7378 22.75 53.7378 21.24C53.7378 19.84 52.6978 19 51.1178 19H48.4978V26ZM49.2878 22.81V19.73H51.0578C52.1878 19.73 52.9378 20.25 52.9378 21.25C52.9378 22.19 52.1778 22.81 51.0178 22.81H49.2878ZM56.6775 26H57.4475V20.34L59.9975 24.08H60.0375L62.5875 20.33V26H63.3775V19H62.5775L60.0275 22.82L57.4775 19H56.6775V26ZM66.8591 26H67.6291L71.7991 20.19V26H72.5791V19H71.8291L67.6491 24.81V19H66.8591V26ZM77.9045 26H78.7045V19.72H81.0545V19H75.5545V19.72H77.9045V26ZM84.0388 26H86.7188C88.3088 26 89.3188 25.14 89.3188 23.77C89.3188 22.31 88.0988 21.71 86.5988 21.71H84.8288V19H84.0388V26ZM84.8288 25.28V22.42H86.6488C87.8088 22.42 88.5288 22.88 88.5288 23.79C88.5288 24.78 87.8188 25.28 86.6988 25.28H84.8288ZM99.0756 26.12C100.536 26.12 101.526 25.24 101.526 24.13C101.526 23.2 100.886 22.66 100.056 22.41C100.696 22.18 101.336 21.7 101.336 20.76C101.336 19.68 100.366 18.89 98.9756 18.89C97.8656 18.89 97.1356 19.22 96.4356 19.82L96.8956 20.37C97.5056 19.82 98.1656 19.58 98.9556 19.58C99.8756 19.58 100.536 20.11 100.536 20.83C100.536 21.66 99.8256 22.15 98.8256 22.15H98.0556V22.8H98.8256C99.8956 22.8 100.716 23.18 100.716 24.09C100.716 24.92 99.9456 25.44 99.0856 25.44C98.0756 25.44 97.3356 25.11 96.6256 24.44L96.1556 24.99C96.9756 25.74 97.8656 26.12 99.0756 26.12ZM104.013 26H104.823L105.653 24.15H109.463L110.283 26H111.133L107.943 18.95H107.203L104.013 26ZM105.963 23.44L107.563 19.87L109.153 23.44H105.963ZM113.443 26H114.403L116.483 23.32H118.493V26H119.283V19H116.293C115.393 19 114.683 19.28 114.253 19.71C113.903 20.05 113.723 20.57 113.723 21.11C113.723 22.28 114.513 22.99 115.633 23.19L113.443 26ZM116.343 22.65C115.273 22.65 114.513 22.08 114.513 21.17C114.513 20.28 115.193 19.71 116.343 19.71H118.493V22.65H116.343ZM122.76 26H125.87C127.4 26 128.41 25.29 128.41 24.09C128.41 23.11 127.74 22.63 126.91 22.38C127.46 22.14 128.02 21.67 128.02 20.76C128.02 20.29 127.86 19.92 127.57 19.62C127.18 19.22 126.54 19 125.74 19H122.76V26ZM123.54 25.29V22.82H125.75C126.97 22.82 127.61 23.26 127.61 24.02C127.61 24.82 126.95 25.29 125.89 25.29H123.54ZM123.54 22.12V19.71H125.67C126.67 19.71 127.22 20.16 127.22 20.85C127.22 21.69 126.56 22.12 125.61 22.12H123.54ZM131.476 26H132.266V24.12L133.756 22.61L136.446 26H137.436L134.306 22.06L137.306 19H136.286L132.266 23.18V19H131.476V26ZM141.194 26.12C142.024 26.12 142.764 25.68 143.334 24.53L146.104 19H145.244L143.014 23.57L140.434 19H139.534L142.614 24.36C142.204 25.14 141.694 25.41 141.214 25.41C140.844 25.41 140.604 25.35 140.324 25.2L140.014 25.83C140.384 26.02 140.734 26.12 141.194 26.12Z" fill="white"/>
<rect x="4" y="4" width="160" height="39" stroke="#F3C61C" stroke-width="0.5"/>
<rect x="1" y="1" width="160" height="39" stroke="#F3C61C" stroke-width="0.5"/>
</svg>
