<svg width="49" height="53" viewBox="0 0 49 53" fill="none" xmlns="http://www.w3.org/2000/svg">
<g clip-path="url(#clip0)">
<path d="M31.907 46.0085C31.907 45.3319 31.6791 44.7681 31.1093 44.0915L30.9954 43.9787V43.7532C30.9954 39.6936 32.3628 35.7468 34.8698 32.8149C37.1488 30.4468 38.2884 27.2894 38.2884 23.9064C38.2884 16.3511 32.1349 10.2617 24.5 10.2617C23.9302 10.2617 23.3605 10.2617 22.9047 10.3745C16.8651 11.0511 11.7372 15.9 10.8256 21.7638C10.2558 25.5979 11.2814 29.3192 13.6744 32.3638C16.4093 35.7468 17.8907 39.6936 17.8907 43.7532V43.9787L17.7767 44.0915C17.3209 44.5426 16.9791 45.2192 16.9791 45.8958C16.9791 46.4596 17.207 47.1362 17.6628 47.7L17.8907 48.0383L17.6628 48.4894C17.207 49.0532 16.9791 49.7298 16.9791 50.2936C16.9791 51.7596 18.2326 53 19.714 53H29.1721C30.6535 53 31.907 51.7596 31.907 50.2936C31.907 49.7298 31.6791 49.0532 31.2233 48.4894L30.9954 48.1511L31.2233 47.8128C31.6791 47.249 31.907 46.5724 31.907 46.0085ZM29.2861 51.8724H19.8279C18.9163 51.8724 18.2326 51.1958 18.2326 50.2936C18.2326 49.3915 18.9163 48.7149 19.8279 48.7149H29.2861C30.1977 48.7149 30.8814 49.3915 30.8814 50.2936C30.8814 51.1958 30.0837 51.8724 29.2861 51.8724ZM18.1186 46.0085C18.1186 45.1064 18.8023 44.4298 19.714 44.4298H29.1721C30.0837 44.4298 30.7674 45.1064 30.7674 46.0085C30.7674 46.9107 30.0837 47.5872 29.1721 47.5872H19.714C18.9163 47.5872 18.1186 46.9107 18.1186 46.0085ZM29.9698 42.7383V43.3021H25.0698V32.7021L29.514 28.3043C29.6279 28.1915 29.7419 28.0787 29.7419 27.966C29.7419 27.8532 29.6279 27.7404 29.514 27.6277C29.286 27.4021 28.9442 27.4021 28.7163 27.6277L24.3861 31.9128L20.0558 27.6277C19.8279 27.4021 19.486 27.4021 19.2581 27.6277C19.1442 27.7404 19.0302 27.8532 19.0302 27.966C19.0302 28.0787 19.1442 28.1915 19.2581 28.3043L23.9302 32.7021V43.3021H19.0302V42.7383C18.8023 38.9043 17.3209 35.183 14.5861 31.6873C12.307 28.8681 11.3954 25.3724 11.9651 21.8766C12.7628 16.4638 17.4349 12.066 23.0186 11.3894C23.2465 11.3894 23.4744 11.3894 23.7023 11.3894C23.9302 11.3894 24.1581 11.2766 24.5 11.2766C31.4512 11.2766 37.1488 16.9149 37.1488 23.7936C37.1488 26.7255 36.0093 29.6575 34.1861 31.9128C31.6791 34.8447 30.1977 38.6787 29.9698 42.7383Z" fill="#0C466C" stroke="#0C466C"/>
<path d="M48.4302 23.6809H41.9349C41.593 23.6809 41.3651 23.9064 41.3651 24.2447C41.3651 24.583 41.593 24.8086 41.9349 24.8086H48.4302C48.7721 24.8086 49 24.583 49 24.2447C49 23.9064 48.6581 23.6809 48.4302 23.6809Z" fill="#0C466C" stroke="#0C466C"/>
<path d="M7.06512 23.6809H0.569767C0.227907 23.6809 0 23.9064 0 24.2447C0 24.583 0.227907 24.8086 0.569767 24.8086H7.06512C7.40698 24.8086 7.63488 24.4703 7.63488 24.2447C7.63488 23.9064 7.40698 23.6809 7.06512 23.6809Z" fill="#0C466C" stroke="#0C466C"/>
<path d="M24.5 7.21702C24.8419 7.21702 25.0698 6.99149 25.0698 6.65319V0.56383C25.0698 0.225532 24.8419 0 24.5 0C24.1581 0 23.9302 0.225532 23.9302 0.56383V6.65319C23.9302 6.99149 24.1581 7.21702 24.5 7.21702Z" fill="#0C466C" stroke="#0C466C"/>
<path d="M36.9209 12.517C37.0349 12.517 37.1488 12.517 37.2628 12.2915L41.707 7.89358C41.8209 7.78082 41.9349 7.66805 41.9349 7.55528C41.9349 7.44252 41.8209 7.32975 41.707 7.21699C41.593 7.10422 41.4791 6.99146 41.3651 6.99146C41.2512 6.99146 41.1372 7.10422 41.0233 7.21699L36.5791 11.6149C36.4651 11.7276 36.3512 11.8404 36.3512 11.9532C36.3512 12.0659 36.4651 12.1787 36.5791 12.2915C36.693 12.4042 36.807 12.517 36.9209 12.517Z" fill="#0C466C" stroke="#0C466C"/>
<path d="M12.193 35.8596C12.0791 35.8596 11.9651 35.9724 11.8512 36.0852L7.29302 40.5958C7.06512 40.8213 7.06512 41.1596 7.29302 41.3852C7.63488 41.6107 7.74884 41.6107 8.0907 41.3852L12.6488 36.8745C12.8767 36.649 12.8767 36.3107 12.6488 36.0852C12.4209 35.9724 12.307 35.8596 12.193 35.8596Z" fill="#0C466C" stroke="#0C466C"/>
<path d="M37.1488 35.9724C37.0349 35.8596 36.9209 35.7468 36.807 35.7468C36.693 35.7468 36.5791 35.8596 36.4651 35.9724C36.2372 36.1979 36.2372 36.5362 36.4651 36.7617L41.1372 41.3851C41.593 41.7234 41.8209 41.4979 41.9349 41.3851C42.0488 41.2724 42.0488 40.8213 41.9349 40.5958L37.1488 35.9724Z" fill="#0C466C" stroke="#0C466C"/>
<path d="M11.6233 12.1787C11.7372 12.2915 11.9651 12.4042 11.9651 12.4042C12.0791 12.4042 12.193 12.4042 12.307 12.1787C12.5349 11.9532 12.5349 11.6149 12.307 11.3893L7.97674 6.99146C7.74884 6.76593 7.52093 6.8787 7.29302 7.10423C7.06512 7.32976 7.06512 7.66806 7.29302 7.89359L11.6233 12.1787Z" fill="#0C466C" stroke="#0C466C"/>
</g>
<defs>
<clipPath id="clip0">
<rect width="49" height="53" fill="white"/>
</clipPath>
</defs>
</svg>
