<svg width="16" height="10" viewBox="0 0 16 10" fill="none" xmlns="http://www.w3.org/2000/svg">
<path d="M2.86478 8.03343C4.60431 9.34448 6.33386 10 8.00188 10C9.6699 10 11.3994 9.34448 13.139 8.03343C14.1484 7.26483 15.0614 6.38315 15.8613 5.40315C16.0493 5.16552 16.0493 4.83448 15.8613 4.59685C15.0614 3.61685 14.1468 2.73517 13.139 1.96657C11.3994 0.655523 9.6699 0 8.00188 0C6.33386 0 4.60431 0.655523 2.86478 1.96657C1.85533 2.73517 0.94066 3.61685 0.142406 4.59685C-0.0455157 4.83448 -0.0455157 5.16552 0.142406 5.40315C0.94066 6.38315 1.85533 7.26483 2.86478 8.03343ZM8.00188 0.650606C11.6323 0.650606 14.7405 4.25598 15.3375 5C14.7405 5.73746 11.6323 9.34939 8.00188 9.34939C4.37149 9.34939 1.24998 5.72271 0.662934 5C1.24998 4.27729 4.36317 0.650606 8.00188 0.650606Z" fill="#969595"/>
<path d="M8.00088 7.99406C9.67887 7.99406 11.0392 6.65352 11.0392 4.99996C11.0392 3.3464 9.67887 2.00586 8.00088 2.00586C6.32288 2.00586 4.96252 3.3464 4.96252 4.99996C4.96419 6.65352 6.32288 7.99242 8.00088 7.99406ZM8.00088 2.65974C9.31134 2.65974 10.374 3.70694 10.374 4.99832C10.374 6.2897 9.31134 7.3369 8.00088 7.3369C6.69041 7.3369 5.6294 6.29134 5.62774 4.99996C5.6294 3.70858 6.69041 2.66302 8.00088 2.66138V2.65974Z" fill="#969595"/>
<path d="M8.00088 5.77843C8.43715 5.77843 8.79081 5.42991 8.79081 4.99999C8.79081 4.57007 8.43715 4.22156 8.00088 4.22156C7.56461 4.22156 7.21094 4.57007 7.21094 4.99999C7.21094 5.42991 7.56461 5.77843 8.00088 5.77843Z" fill="#969595"/>
</svg>
