<svg width="23" height="23" viewBox="0 0 23 23" fill="none" xmlns="http://www.w3.org/2000/svg">
<rect x="0.375" y="0.375" width="22.25" height="22.25" stroke="#F3C61C" stroke-width="0.75"/>
<path d="M9.5099 10.1281H9.8849V9.75313V7.93762C9.8849 6.82538 10.2475 5.94286 10.86 5.33877C11.473 4.73422 12.3704 4.37506 13.5021 4.375C13.5022 4.375 13.5023 4.375 13.5024 4.375L15.625 4.37827V6.72338L14.2065 6.72386C14.2065 6.72386 14.2065 6.72386 14.2064 6.72386C13.679 6.72388 13.2435 6.81836 12.9615 7.12541C12.6853 7.4261 12.6456 7.83844 12.6456 8.2141V9.75313V10.1281H13.0206H15.5238L15.5228 12.6613H13.0206H12.6456V13.0363V19.625H9.8849V13.0363V12.6613H9.5099H7.375V10.1281H9.5099Z" stroke="#F3C61C" stroke-width="0.75"/>
</svg>
