<svg width="64" height="53" viewBox="0 0 64 53" fill="none" xmlns="http://www.w3.org/2000/svg">
<g clip-path="url(#clip0)">
<path d="M64 37.7129L55.7912 17.3061C55.7185 17.1619 55.6459 17.0898 55.5006 17.0177C55.3553 16.9456 55.21 16.9456 55.1374 17.0177L48.5993 20.4068C48.3814 20.4789 48.3088 20.6953 48.3088 20.9116C48.3088 21.0558 48.3088 21.1279 48.3814 21.2L48.4541 21.7048L48.0908 21.7769C47.0738 21.9932 45.9841 22.0653 44.9671 22.0653C43.6595 22.0653 42.3519 21.849 41.1169 21.4163L36.3224 19.8299C35.9592 19.6857 35.5959 19.6136 35.3054 19.6136H34.2157H34.143C34.0704 19.6136 33.9978 19.5415 33.9251 19.5415L28.1135 19.0368C27.7503 18.9646 27.3871 18.9646 27.0965 19.0368L15.6913 20.6953L15.546 20.551C15.4734 20.4789 15.4734 20.4789 15.4007 20.4789L8.86268 17.0898C8.64475 16.9456 8.28153 17.0177 8.20888 17.3061L0.072672 37.7129C2.72971e-05 37.8572 2.72971e-05 38.0014 0.072672 38.1456C0.145317 38.2898 0.217961 38.3619 0.363251 38.434L7.40979 40.381C7.62772 40.4531 7.84566 40.381 7.99095 40.1646L8.20888 39.8041L8.42682 39.732H9.08062C9.73442 39.732 10.4609 39.8762 11.042 40.0925L12.4223 40.5252L12.2043 40.9578C11.9138 41.4626 11.7685 41.9674 11.7685 42.5442C11.6958 43.4095 12.1317 44.2027 12.8581 44.6354C13.5119 45.068 14.311 45.1402 15.0375 44.8517L15.4734 44.7075L15.546 45.1401C15.7639 46.5102 16.9262 47.5197 18.3065 47.5197C18.7424 47.5197 19.1782 47.4476 19.5415 47.2313L19.9773 47.0871L20.05 47.5197C20.1226 48.6014 20.7038 49.5388 21.5755 50.1157C22.0114 50.4041 22.5199 50.5483 23.0284 50.5483C23.319 50.5483 23.5369 50.4762 23.8275 50.4041L24.2634 50.2599L24.336 50.6925C24.4087 51.4136 24.8445 52.0626 25.4257 52.4231C25.9342 52.7116 26.5154 52.9279 27.0239 52.8558C27.6777 52.8558 28.2588 52.7116 28.84 52.351C29.0579 52.2068 29.2758 52.0626 29.4938 51.9184L29.6391 51.7742L29.857 51.8463C31.3099 52.4953 32.8354 52.8558 34.361 52.8558C34.4336 52.8558 34.5789 52.8558 34.6516 52.7837L34.9421 52.5674C35.378 52.2789 35.6686 51.8463 35.8139 51.3415L35.9592 50.9089L36.395 51.1252C37.3394 51.7021 38.5744 51.9184 39.664 51.5578C40.2452 51.4136 40.7537 50.981 40.9716 50.4762L41.1169 50.1878C41.2622 49.7551 41.3349 49.3225 41.3349 48.8177V48.1687L41.916 48.4572C42.3519 48.6735 42.8604 48.8898 43.3689 48.9619C44.4586 49.1061 45.4756 48.7456 46.2747 47.9524L46.3474 47.8803C46.7832 47.3755 47.0012 46.7265 46.8559 46.0776L46.7106 45.4286L47.2917 45.6449C48.2361 46.0055 49.2531 45.8612 50.1249 45.2844L50.1975 45.2123C50.4155 44.9959 50.6334 44.7796 50.8513 44.5633C51.3598 43.9864 51.6504 43.1932 51.5778 42.4V41.2463H53.5392C54.4109 41.2463 55.21 40.8136 55.6459 40.0925L55.8638 39.8041L56.1544 39.9483C56.227 40.0204 56.2997 40.0204 56.3723 40.0204C56.445 40.0204 56.5176 40.0204 56.5903 40.0204L63.5642 38.0735C63.7094 38.0014 63.8547 37.9293 63.8547 37.7851C64 38.0014 64 37.8572 64 37.7129ZM7.48243 39.083L7.33714 39.2993L1.16234 37.5687L8.93533 18.1714L13.8025 20.7674L14.529 21.1279V21.4163C14.529 21.5606 14.4563 21.6327 14.4563 21.7769L14.3837 22.2095C13.3667 27.6177 11.4052 32.6653 8.49946 37.3524C8.20888 37.9293 7.84566 38.5061 7.48243 39.083ZM16.4904 42.4L16.2724 42.6884C16.1272 42.9048 15.9092 43.1211 15.6913 43.3374L15.6186 43.4095C15.4007 43.6259 15.1828 43.7701 14.8922 43.9143C14.6743 44.0585 14.4563 44.0585 14.1657 44.0585C13.8752 44.0585 13.5846 43.9864 13.3667 43.8422C12.9308 43.5538 12.6402 43.049 12.7129 42.5442C12.7855 42.0395 12.9308 41.6068 13.1487 41.1742C13.2214 40.9578 13.3667 40.8136 13.5119 40.5973C13.8025 40.2367 14.1657 39.8762 14.529 39.6599C14.7469 39.5157 15.0375 39.3714 15.3281 39.2993C15.4734 39.2993 15.546 39.2993 15.6186 39.2993C16.0545 39.2993 16.4904 39.5878 16.6357 40.0204C16.6357 40.0925 16.6357 40.0925 16.7083 40.1646H16.781L16.8536 40.5252V40.8136L16.781 41.4626C16.781 41.751 16.6357 42.1116 16.4904 42.4ZM20.2679 45.7891L20.1953 45.8612C20.1226 45.9333 20.1226 45.9333 20.1226 45.9333C19.5415 46.366 18.9603 46.5823 18.4518 46.5823C18.0886 46.5823 17.798 46.5102 17.5074 46.2939C16.8536 45.8612 16.4904 45.068 16.7083 44.347C16.7083 44.2027 16.7083 44.0585 16.781 43.8422V43.7701L16.8536 43.6259C16.9262 43.4816 17.0715 43.4095 17.1442 43.2653L17.3621 42.9769C17.3621 42.9769 17.3621 42.9048 17.4348 42.9048C17.58 42.6163 17.7253 42.3279 17.8706 42.0395L17.9433 41.751C18.0159 41.4626 18.0886 41.2463 18.0886 40.9578L18.1612 40.7415C18.4518 40.2367 18.7424 39.8041 19.1782 39.6599C19.3235 39.6599 19.6141 39.6599 19.9047 39.6599C20.4858 39.6599 20.9944 39.8041 21.4302 40.0925C21.9387 40.4531 22.3746 40.8857 22.5925 41.4626C22.6652 41.6068 22.7378 41.8231 22.7378 42.0395C22.8105 42.5442 22.5199 42.9048 22.1567 43.4816L21.8661 43.9143C21.7934 44.0585 21.6482 44.2748 21.5029 44.4191C21.2123 44.9238 20.7764 45.3565 20.2679 45.7891ZM24.6992 48.9619L24.6266 49.1061C24.5539 49.1782 24.4813 49.2504 24.336 49.2504C23.9728 49.4667 23.6096 49.6109 23.1737 49.6109C22.8105 49.6109 22.4472 49.5388 22.1567 49.3225C21.4302 48.8177 21.067 48.0245 21.067 47.1592C21.067 47.015 21.067 46.7987 21.067 46.5823V46.366L21.3576 46.0776C21.6482 45.7891 21.9387 45.4286 22.2293 45.068L22.3746 44.8517C22.4472 44.7075 22.5925 44.5633 22.6652 44.4191L22.9558 43.9864C23.3916 43.4816 23.6096 42.8327 23.6822 42.2558V42.0395L23.8275 41.9674C24.1907 41.751 24.6992 41.6789 25.1351 41.6789C25.571 41.6789 26.0068 41.8231 26.3701 42.0395C27.2418 42.6163 27.7503 43.698 27.5324 44.7075C27.4597 45.068 27.3144 45.4286 27.1692 45.7891C27.0239 46.0776 26.9512 46.366 26.7333 46.6544L26.6606 46.7987C26.6606 46.8708 26.588 46.8708 26.588 46.9429C26.4427 47.2313 26.2248 47.5197 26.0068 47.8082C25.6436 48.2408 25.2077 48.6014 24.6992 48.9619ZM29.6391 50.1878C29.6391 50.2599 29.5664 50.4041 29.4938 50.4762L29.4211 50.5483C29.1306 50.981 28.7673 51.4136 28.2588 51.6299L28.1862 51.702C27.823 51.9184 27.4597 51.9905 27.0965 51.9905C26.7333 51.9905 26.2974 51.9184 25.9342 51.702C25.4983 51.4136 25.0625 50.8367 25.4257 49.7551L25.4983 49.6109L25.6436 49.4667C26.0795 49.1061 26.4427 48.6735 26.8059 48.2408C26.9512 48.0245 27.0965 47.8082 27.2418 47.5919L27.3144 47.5197L27.4597 47.4476C27.7503 47.3034 28.0409 47.3034 28.3315 47.2313C28.5494 47.2313 28.84 47.3034 29.0579 47.4476C29.5664 47.8803 29.7844 48.4572 29.7117 49.034V49.1061C29.7844 49.5388 29.7844 49.8993 29.6391 50.1878ZM50.706 42.7606C50.7787 43.2653 50.5607 43.7701 50.2702 44.2027C50.1249 44.347 49.9796 44.5633 49.8343 44.7075L49.689 44.7796C48.9626 45.2844 48.0908 45.2844 47.3644 44.7796L35.7412 35.6218C35.5233 35.4776 35.2327 35.4776 35.0148 35.766C34.8695 35.9823 34.8695 36.2708 35.0874 36.4871L43.7322 43.2653C44.6765 43.9864 45.3303 44.9959 45.7662 46.0776L45.8388 46.366C45.9841 46.7265 45.9115 47.1592 45.6209 47.4476L45.5483 47.5197C45.0398 48.0245 44.3133 48.3129 43.5869 48.2408C43.0057 48.1687 42.4245 47.8803 41.9887 47.5919L32.109 38.7225C31.8911 38.5061 31.6005 38.5782 31.3825 38.7946C31.3099 38.8667 31.2373 39.0109 31.2373 39.1551C31.2373 39.2993 31.3099 39.4436 31.3825 39.5157L39.5914 46.8708C39.7367 47.015 39.882 47.2313 39.9546 47.4476V47.5919L40.3905 48.8177C40.3905 49.1782 40.3905 49.6109 40.3178 49.9714V50.0436L40.1726 50.332C40.0273 50.6204 39.8093 50.8367 39.4461 50.9089C38.3564 51.1973 37.1941 50.9089 36.4677 50.1157L30.7287 44.347C30.5108 44.1306 30.2202 44.1306 30.0023 44.347C29.7844 44.5633 29.7844 44.8517 30.0023 45.068L34.7968 50.4041C35.0148 50.6204 35.0874 50.8368 35.0874 51.1252C35.0874 51.4136 34.9421 51.7021 34.7242 51.9184C34.6516 51.9905 34.6516 51.9905 34.5789 52.0626L34.361 52.2068H34.2157C33.0534 52.2068 31.8911 51.9184 30.8014 51.4857L30.5108 51.3415L30.6561 50.981C30.874 50.4041 30.9467 49.8272 30.9467 49.2504C31.0193 48.2408 30.5835 47.3755 29.7844 46.7987C29.4938 46.5823 29.1306 46.5102 28.7673 46.4381L28.3315 46.366L28.4768 45.9333C28.622 45.5728 28.6947 45.2844 28.7673 44.9238C28.9853 43.4816 28.4041 42.1116 27.2418 41.3184C26.2974 40.7415 25.1351 40.6694 24.1181 41.1021H23.6096L23.4643 40.8136C23.1737 40.1646 22.6652 39.5878 22.0114 39.2272C21.067 38.6504 19.9047 38.5061 18.815 38.7946C18.5244 38.8667 18.3065 39.0109 18.0886 39.2272L17.798 39.4436L17.5801 39.1551C17.0715 38.5061 16.1998 38.1456 15.4007 38.3619C14.6016 38.5782 13.8025 39.083 13.2214 39.6599L13.0761 39.732L11.4052 39.1551C10.8241 38.9388 10.1703 38.8667 9.58913 38.7946L9.00797 38.7225L9.29855 38.2177C12.4223 33.2422 14.529 27.7619 15.6186 21.9932L15.6913 21.7048L27.3144 20.0463C27.605 19.9742 27.823 19.9742 28.1135 20.0463L30.6561 20.2626L26.1521 23.0748C24.9898 23.7959 24.1907 24.9497 23.9001 26.2476C23.7549 27.3293 23.4643 28.4109 23.0284 29.4204L22.3746 30.5021C22.0114 30.8626 21.9387 31.2953 21.9387 31.8C22.0114 32.5211 22.6652 33.2422 23.9001 33.8191C23.9728 33.8191 24.0454 33.8912 24.1181 33.8912H24.6992C27.8956 33.8191 30.5108 31.5116 30.9467 28.3388L31.0193 27.9782L32.5449 28.1225C33.8525 28.1946 35.0874 28.6272 36.1045 29.4204L47.8729 38.0735C49.0352 38.9388 49.9796 40.0204 50.6334 41.3184C50.6334 41.3184 50.6334 41.3905 50.706 41.3905V41.5347C50.706 41.6789 50.706 41.8953 50.706 42.1116C50.706 42.3279 50.706 42.4721 50.706 42.5442C50.706 42.6884 50.706 42.6884 50.706 42.7606ZM55.1374 39.0109C55.1374 39.8041 54.4836 40.5252 53.6118 40.5252H51.6504H51.4325L51.2872 40.381C50.6334 39.2272 49.7617 38.2177 48.672 37.3524L47.437 36.4871L36.6856 28.483C35.5233 27.6177 34.0704 27.1129 32.6175 26.9687L30.5108 26.8245C30.3655 26.8245 30.2202 26.8245 30.1476 26.9687C30.0023 27.0408 30.0023 27.1851 30.0023 27.3293C30.0023 30.2857 27.6777 32.6653 24.6992 32.7374H24.2634L24.1907 32.6653C23.2463 32.1606 23.0284 31.7279 22.9558 31.5116C22.9558 31.4395 22.9558 31.3674 22.9558 31.2231V31.151L23.0284 31.0789L23.101 31.0068L23.8275 29.9252C24.336 28.8436 24.6992 27.6898 24.8445 26.3919C25.0625 25.3102 25.7163 24.4449 26.588 23.868L31.3825 20.8395C31.6731 20.6953 31.9637 20.551 32.3269 20.6231H34.7968V20.551H35.5233H35.5959C35.7412 20.551 35.8139 20.6231 35.9592 20.6231L40.7537 22.3538C42.0613 22.7864 43.5142 23.0748 44.8945 23.0748C45.9841 23.0748 47.1465 23.0027 48.2361 22.7864L48.5993 22.7143L48.672 23.0748C49.8343 28.6272 51.941 33.8912 54.9921 38.7225L55.0647 38.7946V39.0109H55.1374ZM56.6629 39.2993L56.5176 39.083C56.3723 38.8667 56.227 38.5782 56.0091 38.3619L55.8638 38.0735C52.8854 33.3864 50.8513 28.2667 49.689 22.8585L49.6164 22.498C49.5437 22.1374 49.4711 21.849 49.4711 21.4885L49.3984 21.2721L49.6164 21.1279L50.4881 20.6231L54.9921 18.2436L62.7651 37.6408L56.6629 39.2993Z" fill="#0C466C" stroke="#0C466C"/>
<path d="M19.6141 14.7823C19.7594 14.9986 20.1226 15.0707 20.3405 14.9265C20.4858 14.8544 20.5585 14.7102 20.5585 14.5659C20.5585 14.4217 20.5585 14.2775 20.4858 14.2054L15.9819 7.71559C15.9092 7.57138 15.7639 7.49927 15.546 7.49927C15.4733 7.49927 15.3281 7.49927 15.2554 7.57138C15.1101 7.64349 15.0375 7.7877 15.0375 7.85981C15.0375 8.00403 15.0375 8.14825 15.1101 8.22036L19.6141 14.7823Z" fill="#0C466C" stroke="#0C466C"/>
<path d="M27.605 13.5565H27.7503C27.9683 13.4844 28.1862 13.268 28.1135 12.9796L26.1521 0.432653C26.1521 0.288435 26.0795 0.144218 25.9342 0.0721088C25.8616 0 25.7889 0 25.6436 0H25.571C25.2804 0.0721088 25.0625 0.288435 25.1351 0.576871L27.1692 13.1238C27.1692 13.4122 27.3871 13.5565 27.605 13.5565Z" fill="#0C466C" stroke="#0C466C"/>
<path d="M43.0783 14.9987C43.2236 14.9987 43.3689 14.9266 43.5142 14.7823L48.0182 8.22044C48.0908 8.07623 48.1635 7.93201 48.0908 7.78779C48.0182 7.64357 47.9455 7.57146 47.8729 7.49935C47.8002 7.42725 47.7276 7.42725 47.5823 7.42725C47.5097 7.42725 47.5097 7.42725 47.437 7.42725C47.2917 7.42725 47.2191 7.57146 47.1464 7.64357L42.6425 14.2055C42.5698 14.2776 42.5698 14.4218 42.5698 14.4939C42.5698 14.6381 42.6425 14.7823 42.7151 14.8545C42.8604 14.9987 43.0057 14.9987 43.0783 14.9987Z" fill="#0C466C" stroke="#0C466C"/>
<path d="M35.378 13.5565H35.4507C35.7412 13.5565 35.8865 13.4122 35.9592 13.1238L37.9932 0.576871C37.9932 0.432653 37.9932 0.288435 37.9206 0.216327C37.9206 0.144218 37.7753 0 37.63 0C37.4847 0 37.3394 0 37.2668 0.0721088C37.1215 0.216327 37.0489 0.288435 37.0489 0.432653L35.0148 12.9796C34.9422 13.268 35.1601 13.4844 35.378 13.5565Z" fill="#0C466C" stroke="#0C466C"/>
</g>
<defs>
<clipPath id="clip0">
<rect width="64" height="53" fill="white"/>
</clipPath>
</defs>
</svg>
