<svg width="319" height="275" viewBox="0 0 319 275" fill="none" xmlns="http://www.w3.org/2000/svg">
<path d="M39.6516 84.4027L47.6144 80.8249C48.1019 80.6623 48.7519 80.6623 49.2394 80.8249L55.2522 83.1017C56.0647 83.4269 56.8772 83.2643 57.5273 82.6138L63.0525 76.9219C63.7025 76.2714 63.215 75.2957 62.4025 75.2957H48.5894C47.9394 75.2957 47.2894 75.6209 46.8018 75.9462L39.0015 83.5896C39.0015 83.5896 38.839 83.9148 39.0015 84.2401C39.3266 84.4027 39.6516 84.4027 39.6516 84.4027Z" fill="#F3C61C"/>
<path d="M110.992 173.359L117.005 179.376C111.317 182.629 107.742 190.597 107.742 196.289V197.915C107.742 212.552 119.605 224.423 134.23 224.423H141.868C144.143 224.423 146.256 225.562 147.393 227.513L148.693 229.79C150.806 233.368 154.544 235.482 158.606 235.645H158.769H162.506H162.669C166.732 235.482 170.469 233.205 172.582 229.79L173.882 227.513C175.019 225.562 177.132 224.423 179.407 224.423H187.045C201.67 224.423 213.533 212.552 213.533 197.915V196.289C213.533 190.597 209.958 182.629 204.27 179.376L210.446 173.034C212.233 170.757 212.233 167.342 210.283 164.902C210.283 164.902 205.896 160.349 199.72 152.868C198.258 150.917 196.47 148.64 194.52 145.713C189.645 138.557 188.02 129.613 190.132 121.156L192.408 112.374C195.17 102.454 193.22 92.2088 187.045 84.0775C180.87 75.9462 171.444 71.23 161.206 71.23H159.906C149.668 71.23 140.243 75.9462 134.068 84.0775C127.892 92.2088 125.942 102.617 128.705 112.374L130.98 121.156C133.255 129.613 131.63 138.557 126.755 145.713C124.805 148.64 123.017 151.079 121.555 152.868C115.379 160.512 111.154 164.902 110.829 165.065C108.879 167.504 108.879 170.757 110.992 173.359ZM115.054 168.968C115.217 168.805 119.605 164.252 125.942 156.446C127.567 154.494 129.355 151.892 131.468 148.965C137.318 140.509 139.105 129.775 136.668 119.855L134.393 110.911C132.118 102.779 133.743 94.3229 138.78 87.4926C143.818 80.825 151.618 76.9219 160.069 76.9219H161.369C169.819 76.9219 177.619 80.825 182.657 87.4926C187.695 94.1603 189.32 102.779 187.045 110.911L184.77 119.692C182.17 129.775 184.12 140.346 189.97 148.802C192.083 151.892 193.87 154.332 195.495 156.283C201.833 164.089 206.221 168.48 206.221 168.48C206.383 168.643 206.383 168.968 206.383 169.131L197.12 178.563C196.308 179.376 196.145 180.514 196.47 181.653C196.958 182.629 197.933 183.442 199.07 183.442C203.62 183.442 208.008 190.76 208.008 196.127V197.753C208.008 209.299 198.745 218.569 187.207 218.569H179.57C175.344 218.569 171.444 220.846 169.169 224.423L167.869 226.7C166.732 228.652 164.619 229.79 162.344 229.79H158.931C156.656 229.79 154.544 228.652 153.406 226.7L152.106 224.423C149.993 220.846 145.931 218.569 141.706 218.569H134.068C122.53 218.569 113.267 209.299 113.267 197.753V196.127C113.267 190.76 117.655 183.442 122.205 183.442C123.342 183.442 124.317 182.791 124.805 181.653C125.292 180.677 124.967 179.376 124.155 178.563L115.054 169.293C114.892 169.293 114.892 168.968 115.054 168.968Z" fill="#F3C61C"/>
<path d="M315.262 80.1744L285.524 59.6836C281.299 56.7564 276.423 55.2927 271.386 55.2927H270.086C268.135 53.016 261.31 45.3726 254.485 39.6807C249.122 35.1271 242.785 30.8989 236.934 32.6878C234.822 33.3383 233.034 34.8019 231.572 36.916C222.634 36.5908 213.696 38.0544 204.921 41.1443L214.996 9.75754C215.321 8.78179 214.996 7.64341 214.346 6.83028C213.533 6.01715 212.558 5.85452 211.421 6.17977L182.982 15.4494L162.831 0.487877C161.856 -0.162626 160.719 -0.162626 159.744 0.487877L139.755 15.4494L111.317 6.17977C110.342 5.85452 109.204 6.17977 108.392 6.83028C107.579 7.64341 107.417 8.61916 107.742 9.75754L117.817 41.1443C109.042 38.0544 100.104 36.5908 91.1661 36.916C89.7035 34.8019 87.9159 33.3383 85.8034 32.6878C79.9531 30.7362 73.6154 35.1271 68.2527 39.6807C61.4274 45.3726 54.6021 53.016 52.6521 55.2927H51.352C46.3143 55.2927 41.4391 56.7564 37.3765 59.6836L3.90015 80.0118C1.46256 81.3128 0 83.9148 0 86.6795V106.845C0 107.983 0.650025 108.959 1.62506 109.447L9.10036 113.025L5.68772 118.066C5.52522 118.229 5.52522 118.391 5.52522 118.554C4.06266 121.644 4.38767 125.222 6.50025 127.986C6.66276 128.149 6.66276 128.312 6.82527 128.474L23.7259 143.761C23.4009 145.713 23.2384 147.827 23.2384 149.778C23.2384 161.487 28.6011 172.221 37.7015 179.376L160.881 274.837C161.206 275.163 161.694 275.163 162.019 274.837L285.036 179.539C294.137 172.383 299.499 161.487 299.499 149.941C299.499 147.827 299.337 145.875 299.012 143.924L315.912 128.637C316.075 128.474 316.237 128.312 316.237 128.149C318.187 125.384 318.675 121.807 317.375 118.717C317.375 118.554 317.212 118.391 317.212 118.229L312.987 111.886L317.537 109.447C318.512 108.959 319 107.983 319 107.008V86.6795C319 83.9148 317.537 81.3128 315.262 80.1744ZM313.312 86.3542C313.312 86.5168 313.475 86.5168 313.475 86.6795V87.4926L312.5 86.5169L313.312 86.3542ZM198.095 43.7463C194.683 45.0473 190.132 46.9988 185.257 48.7877V20.6535L208.008 13.3353L198.095 43.7463ZM164.294 57.4069V40.9817C164.294 39.3554 162.994 38.217 161.531 38.217C159.906 38.217 158.769 39.518 158.769 40.9817V57.4069C155.031 55.9432 149.181 53.6665 143.168 51.0645V20.003L160.069 7.64341C161.044 6.9929 162.181 6.9929 163.156 7.64341L180.057 20.003V51.0645C173.719 53.5038 168.032 55.9432 164.294 57.4069ZM137.48 20.6535V48.7877C132.768 46.8362 128.218 45.0473 124.642 43.7463L114.892 13.3353L137.48 20.6535ZM116.355 46.5109L116.68 46.6736C117.167 46.8362 118.792 47.4867 121.392 48.4624C121.555 48.4624 121.555 48.6251 121.717 48.6251C125.942 50.414 132.443 53.016 138.943 55.4553C139.105 55.618 139.43 55.618 139.755 55.7806C146.581 58.5452 155.844 62.123 159.744 63.7493C161.044 64.2371 162.344 64.2371 163.481 63.7493C167.382 62.123 176.482 58.5452 183.307 55.7806C183.632 55.7806 183.795 55.618 184.12 55.4553C190.62 52.8533 197.12 50.2513 201.345 48.6251C201.508 48.6251 201.508 48.4624 201.67 48.4624C204.108 47.4867 205.896 46.8362 206.221 46.6736L206.708 46.5109C214.021 43.9089 221.496 42.6079 228.971 42.4453C228.971 42.7705 228.971 42.6079 229.134 42.9332C225.884 44.3968 216.784 49.2756 210.608 59.0331C210.446 59.1957 210.283 59.3584 210.121 59.521C188.345 93.3471 240.834 168.968 250.422 182.141L162.181 267.682C161.856 268.007 161.206 268.007 160.881 267.682L72.6404 182.141C82.2282 168.968 134.718 93.3471 112.942 59.521C112.779 59.3584 112.617 59.1957 112.454 59.0331C106.117 49.1129 97.0163 44.2342 93.7662 42.7705C93.7662 42.6079 93.7662 42.6079 93.9287 42.2827C101.404 42.6079 108.879 43.9089 116.355 46.5109ZM254.485 178.238C247.01 167.83 219.059 126.848 212.071 93.835C212.721 94.8108 213.533 95.7865 214.346 96.5996L273.986 159.373L254.485 178.238ZM48.9144 159.373L108.717 96.7623C109.529 95.9491 110.342 94.9734 110.992 93.9976C104.004 127.011 75.8905 167.992 68.5777 178.4L48.9144 159.373ZM5.68772 86.6795C5.68772 86.5168 5.68772 86.5168 5.85023 86.3542L6.82527 86.6795L5.85023 87.6552V86.6795H5.68772ZM5.68772 95.4613L14.1381 87.33C14.7881 86.6795 15.1131 85.5411 14.9506 84.5653C14.6256 83.7522 13.813 82.9391 12.838 82.6138L11.2129 82.126L40.4641 64.2371C43.7142 61.9604 47.4519 60.822 51.352 60.822H71.0153C72.6404 60.822 73.7779 59.521 73.7779 58.0574C73.7779 56.4311 72.4778 55.2927 71.0153 55.2927H60.2899C63.3775 52.0402 67.6026 47.4867 71.8278 44.0716C73.9404 42.2827 80.2781 36.916 84.1783 38.217C86.7784 39.0302 88.241 42.9332 88.891 45.8604L95.0662 73.6694L37.3765 120.018C37.214 120.18 37.214 120.18 37.0514 120.343L5.68772 105.056V95.4613ZM10.8879 124.409C10.2379 123.433 10.0754 122.132 10.5629 120.993L14.1381 115.464L32.8263 124.571C29.4137 128.312 26.8136 132.703 25.351 137.581L10.8879 124.409ZM40.9516 124.409L99.9414 76.9219C100.754 76.2714 101.079 75.133 100.916 74.1573L95.7163 50.414C99.6164 52.8533 104.817 57.0816 108.554 63.424C113.917 72.6937 112.292 84.728 104.654 92.6966L34.1263 166.691C30.8762 161.65 29.2511 155.795 29.2511 149.616C28.9261 139.858 33.3138 130.588 40.9516 124.409ZM37.3765 171.407L45.0143 163.439L121.717 237.759L41.4391 175.148C39.8141 173.847 38.514 172.708 37.3765 171.407ZM281.624 174.985L201.345 237.596L278.048 163.276L285.686 171.245C284.224 172.708 282.924 173.847 281.624 174.985ZM288.936 166.854L218.246 92.6966C210.608 84.728 208.983 72.6937 214.346 63.424C218.084 56.919 223.284 52.8533 227.184 50.414L221.984 73.9947C221.821 74.9704 222.146 76.1088 222.959 76.7593L281.949 124.246C289.586 130.426 293.974 139.695 293.974 149.616C293.811 155.958 292.024 161.813 288.936 166.854ZM312.337 120.993C312.825 122.132 312.662 123.433 312.012 124.409L297.549 137.419C295.924 132.54 293.324 128.149 289.911 124.409L308.112 114.488L312.337 120.993ZM285.686 120.18C285.524 120.18 285.524 120.018 285.361 120.018L227.834 73.5068L234.009 45.6978C234.822 42.6079 236.284 38.7049 238.884 37.8918C242.622 36.7534 249.122 42.12 251.235 43.7463C255.46 47.3241 259.848 51.715 262.773 54.9675H251.885C250.26 54.9675 249.122 56.2685 249.122 57.7321C249.122 59.3584 250.422 60.4967 251.885 60.4967H271.548C275.448 60.4967 279.186 61.6351 282.436 63.9119L308.275 81.8007L306.162 82.4512C305.187 82.7765 304.537 83.5896 304.212 84.5653C304.049 85.5411 304.212 86.5169 305.024 87.33L313.475 95.4613V105.219L285.686 120.18Z" fill="#F3C61C"/>
<path d="M283.736 83.5896L276.098 75.9462C275.611 75.4583 274.961 75.2957 274.311 75.2957H260.498C259.685 75.2957 259.198 76.2714 259.848 76.9219L265.373 82.6138C266.023 83.2643 266.835 83.4269 267.648 83.1017L273.661 80.8249C274.148 80.6623 274.798 80.6623 275.286 80.8249L283.249 84.4027C283.249 84.4027 283.736 84.5653 283.899 84.2401C284.061 83.9148 283.899 83.5896 283.736 83.5896Z" fill="#F3C61C"/>
<path d="M150.806 167.179L144.306 203.77C144.143 204.583 144.306 205.396 144.956 206.047C145.443 206.697 146.256 207.022 147.068 207.022H174.857C175.669 207.022 176.482 206.697 176.969 206.047C177.457 205.396 177.782 204.583 177.619 203.77L171.119 166.691C176.644 163.276 179.895 157.259 179.895 150.429C179.895 139.695 171.119 131.076 160.556 131.076C149.993 131.076 141.218 139.858 141.218 150.429C141.218 157.422 144.956 163.764 150.806 167.179ZM160.556 136.606C168.194 136.606 174.369 142.785 174.369 150.429C174.369 155.795 171.607 160.349 166.894 162.626C165.756 163.114 165.106 164.415 165.269 165.716L171.607 201.493H150.481L156.819 166.041C156.981 164.74 156.331 163.439 155.194 162.951C150.156 160.837 146.906 155.795 146.906 150.266C146.906 142.785 153.081 136.606 160.556 136.606Z" fill="#F3C61C"/>
</svg>
