<svg width="32" height="45" viewBox="0 0 32 45" fill="none" xmlns="http://www.w3.org/2000/svg">
<g clip-path="url(#clip0)">
<path d="M26.8571 10.5037C26.8571 4.69902 22 0 16 0C10 0 5.14286 4.69902 5.14286 10.5037V17.3034H0V40.4115L16 45L32 40.4115V17.3034H26.8571V10.5037ZM6.28571 10.5037C6.28571 5.30713 10.6286 1.10565 16 1.10565C21.3714 1.10565 25.7143 5.30713 25.7143 10.5037V17.3034H6.28571V10.5037ZM30.8571 18.4091V39.527L16 43.7838L1.14286 39.527V18.4091H30.8571Z" fill="#0C466C" stroke="#0C466C"/>
<path d="M16.5714 28.36H15.4286V33.8882H16.5714V28.36Z" fill="#0C466C" stroke="#0C466C"/>
</g>
<defs>
<clipPath id="clip0">
<rect width="32" height="45" fill="white"/>
</clipPath>
</defs>
</svg>
