<svg width="243" height="49" viewBox="0 0 243 49" fill="none" xmlns="http://www.w3.org/2000/svg">
<g clip-path="url(#clip0)">
<path d="M7.02657 15.0271L8.44178 14.3889C8.53085 14.349 8.62982 14.349 8.71889 14.3789L9.76792 14.7977C9.90647 14.8476 10.0648 14.8177 10.1638 14.708L11.1336 13.6909C11.2425 13.5812 11.1633 13.3917 11.005 13.3917H8.56054C8.44178 13.3917 8.33292 13.4416 8.25375 13.5214L6.90781 14.8775C6.90781 14.8875 6.86823 14.9373 6.91771 14.9872C6.9474 15.047 7.01668 15.037 7.02657 15.0271Z" fill="#F2C41A"/>
<path d="M19.625 30.8718L20.6741 31.9587C19.6646 32.537 19.0312 33.953 19.0312 34.9701V35.2493C19.0312 37.8518 21.1293 39.9658 23.7123 39.9658H25.0681C25.464 39.9658 25.8401 40.1852 26.038 40.5242L26.2755 40.933C26.6417 41.5612 27.3147 41.9601 28.0371 41.98C28.047 41.98 28.0569 41.98 28.0767 41.98H28.7497C28.7596 41.98 28.7694 41.98 28.7892 41.98C29.5117 41.9501 30.1748 41.5612 30.5508 40.933L30.7883 40.5242C30.9863 40.1752 31.3623 39.9658 31.7582 39.9658H33.114C35.697 39.9658 37.7951 37.8518 37.7951 35.2493V34.9701C37.7951 33.953 37.1716 32.5271 36.1523 31.9587L37.2409 30.8319C37.5675 30.4231 37.5576 29.8248 37.2013 29.396C37.1914 29.386 36.4294 28.5983 35.3408 27.2521C35.0735 26.9231 34.7569 26.4843 34.4105 25.9758C33.5396 24.6994 33.2625 23.094 33.6385 21.5883L34.0245 20.0328C34.5193 18.2778 34.173 16.443 33.0843 14.9872C31.9957 13.5313 30.3331 12.6937 28.522 12.6937H28.3043C26.4932 12.6937 24.8306 13.5313 23.742 14.9872C22.6534 16.443 22.307 18.2778 22.8018 20.0228L23.1977 21.5983C23.5738 23.104 23.2967 24.6994 22.4258 25.9857C22.0794 26.5043 21.7627 26.933 21.4955 27.2621C20.4069 28.6083 19.6448 29.406 19.6151 29.4459C19.2787 29.8347 19.2688 30.4231 19.625 30.8718ZM20.3475 30.104C20.3772 30.0741 21.1491 29.2763 22.2674 27.8903C22.5544 27.5313 22.881 27.0826 23.2472 26.5442C24.2764 25.0285 24.603 23.1339 24.1577 21.349L23.7618 19.7635C23.356 18.3177 23.6331 16.792 24.5337 15.5954C25.4343 14.3989 26.8099 13.7008 28.3043 13.7008H28.5319C30.0263 13.7008 31.4019 14.3889 32.3025 15.5954C33.2031 16.792 33.4901 18.3177 33.0744 19.7735L32.6786 21.349C32.2332 23.1339 32.5598 25.0285 33.5891 26.5442C33.9552 27.0826 34.2818 27.5313 34.5688 27.8903C35.6871 29.2763 36.4591 30.0741 36.4591 30.0741C36.4888 30.1139 36.4888 30.1738 36.4986 30.1738L34.8657 31.859C34.7272 32.0085 34.6876 32.2179 34.7668 32.4074C34.8459 32.5969 35.0241 32.7165 35.222 32.7165C36.0236 32.7165 36.8054 34.0128 36.8054 34.98V35.2592C36.8054 37.3034 35.1527 38.9686 33.1239 38.9686H31.7681C31.016 38.9686 30.3133 39.3675 29.9372 40.0256L29.6997 40.4345C29.4919 40.7835 29.1257 40.9929 28.7299 40.9929H28.1361C27.7402 40.9929 27.3641 40.7735 27.1662 40.4345L26.9287 40.0256C26.5427 39.3775 25.8401 38.9786 25.0978 38.9786H23.742C21.7132 38.9786 20.0605 37.3134 20.0605 35.2692V34.99C20.0605 34.0228 20.8423 32.7265 21.6439 32.7265C21.8419 32.7265 22.0299 32.6068 22.0992 32.4174C22.1784 32.2279 22.1388 32.0185 22.0002 31.8689L20.3772 30.2137C20.3475 30.1738 20.3475 30.1139 20.3475 30.104Z" fill="#F2C41A"/>
<path d="M55.7968 14.2692L50.5417 10.6097C49.8094 10.1011 48.9385 9.82194 48.0478 9.82194H47.8103C47.454 9.41311 46.2466 8.04701 45.0491 7.03989C44.0991 6.24217 42.9807 5.46439 41.9317 5.80342C41.5556 5.92308 41.2389 6.18234 40.9816 6.56125C39.3982 6.5114 37.8147 6.76068 36.261 7.31909L38.0424 1.73504C38.1017 1.55556 38.0523 1.35613 37.9236 1.2265C37.7949 1.09687 37.597 1.04701 37.4189 1.10684L32.3914 2.76211L28.8287 0.0897436C28.6703 -0.0299145 28.4526 -0.0299145 28.2844 0.0897436L24.7216 2.76211L19.6941 1.10684C19.516 1.04701 19.3181 1.09687 19.1894 1.2265C19.0608 1.35613 19.0113 1.55556 19.0707 1.73504L20.852 7.31909C19.2983 6.76068 17.7148 6.5114 16.1413 6.56125C15.884 6.18234 15.5673 5.92308 15.1912 5.80342C14.1422 5.46439 13.0338 6.24217 12.0738 7.03989C10.8763 8.04701 9.66893 9.41311 9.31266 9.82194H9.07514C8.18445 9.82194 7.31355 10.0912 6.601 10.5897L0.692759 14.2493C0.267207 14.4986 0 14.9573 0 15.4558V19.0356C0 19.2251 0.108862 19.4046 0.277104 19.4843L1.59335 20.1325L0.989656 21.0399C0.969862 21.0598 0.959966 21.0897 0.950069 21.1197C0.712552 21.6781 0.781828 22.3162 1.1381 22.8048C1.1579 22.8348 1.17769 22.8547 1.20738 22.8746L4.20604 25.5969C4.14666 25.9558 4.11697 26.3148 4.11697 26.6838C4.12686 28.7578 5.05714 30.6823 6.68017 31.9687L28.4526 48.9601C28.512 49.01 28.5911 49.01 28.6505 48.9601L50.4328 31.9687C52.046 30.6823 52.9862 28.7578 52.9961 26.6838C52.9961 26.3148 52.9565 25.9558 52.907 25.5969L55.9056 22.8746C55.9254 22.8547 55.9551 22.8248 55.9749 22.8048C56.3312 22.3162 56.4104 21.6681 56.163 21.1197C56.1531 21.0897 56.1333 21.0698 56.1234 21.0399L55.3811 19.9131L56.1926 19.4744C56.351 19.3846 56.45 19.2151 56.45 19.0356V15.4558C56.45 14.9573 56.1926 14.4986 55.7968 14.2692ZM55.4405 15.396C55.4405 15.416 55.4603 15.4359 55.4603 15.4558V15.6154L55.2822 15.4459L55.4405 15.396ZM35.0635 7.79772C34.4499 8.04701 33.6483 8.3661 32.8071 8.70513V3.68946L36.8053 2.37322L35.0635 7.79772ZM29.0761 10.2208V7.29915C29.0761 7.01994 28.8485 6.80057 28.5813 6.80057C28.314 6.80057 28.0864 7.02991 28.0864 7.29915V10.2308C27.4333 9.97151 26.404 9.55271 25.3253 9.11396V3.57977L28.3041 1.37607C28.4625 1.25641 28.6802 1.25641 28.8386 1.37607L31.8174 3.57977V9.11396C30.7486 9.54274 29.7293 9.95157 29.0761 10.2208ZM24.3158 3.68946V8.7151C23.4746 8.37607 22.6631 8.04701 22.0594 7.80769L20.3275 2.38319L24.3158 3.68946ZM20.5749 8.2963L20.6343 8.31624C20.7135 8.34615 21.0203 8.46581 21.4656 8.6453C21.4854 8.65527 21.5052 8.66524 21.5151 8.66524C22.2771 8.97436 23.4251 9.43305 24.5633 9.89174C24.6028 9.91168 24.6523 9.93162 24.6919 9.9416C25.8894 10.4302 27.5421 11.0783 28.2448 11.3476C28.4625 11.4373 28.7 11.4274 28.9078 11.3476C29.6006 11.0684 31.2236 10.4202 32.4211 9.9416C32.4706 9.93162 32.5102 9.91168 32.5597 9.89174C33.6978 9.43305 34.8458 8.96439 35.6078 8.66524C35.6276 8.65527 35.6474 8.6453 35.6672 8.6453C36.1026 8.46581 36.3995 8.34615 36.4787 8.32621L36.5579 8.2963C37.8543 7.82764 39.1706 7.59829 40.4868 7.57835C40.4967 7.62821 40.4967 7.61823 40.5066 7.66809C39.9227 7.93732 38.3294 8.79487 37.2308 10.5399C37.2012 10.5698 37.1715 10.5897 37.1517 10.6197C33.3118 16.6425 42.5948 30.114 44.2871 32.4772L28.6703 47.7037C28.6109 47.7635 28.512 47.7635 28.4427 47.7037L12.8259 32.4672C14.5182 30.104 23.8111 16.6425 19.9614 10.6097C19.9416 10.5798 19.9119 10.5598 19.8822 10.5299C18.7639 8.75499 17.1408 7.89744 16.5767 7.63818C16.5866 7.59829 16.5866 7.60826 16.5965 7.56838C17.9326 7.58832 19.2587 7.81766 20.5749 8.2963ZM45.0194 31.7593C43.7032 29.8946 38.7549 22.5954 37.498 16.7222C37.6267 16.8917 37.7554 17.0712 37.9038 17.2208L48.4733 28.3789L45.0194 31.7593ZM8.63969 28.3889L19.2092 17.2308C19.3577 17.0712 19.4863 16.9017 19.6249 16.7222C18.3779 22.5954 13.4197 29.9046 12.1035 31.7593L8.63969 28.3889ZM0.999552 15.4558C0.999552 15.4359 1.00945 15.416 1.01935 15.396L1.17769 15.4459L0.999552 15.6154V15.4558ZM0.999552 17.0014L2.48404 15.5655C2.61269 15.4459 2.66217 15.2564 2.62259 15.0869C2.583 14.9174 2.45435 14.7778 2.2861 14.7279L1.98921 14.6382L7.15521 11.4473C7.71931 11.0484 8.39228 10.839 9.08504 10.839H12.5587C12.8358 10.839 13.0536 10.6097 13.0536 10.3405C13.0536 10.0712 12.8259 9.84188 12.5587 9.84188H10.6784C11.2128 9.26353 11.9847 8.46581 12.7369 7.83761C13.1129 7.52849 14.2411 6.57123 14.9042 6.78063C15.3496 6.9302 15.6168 7.61823 15.7454 8.14672L16.834 13.1125L6.65049 21.3889C6.63069 21.4088 6.6109 21.4288 6.59111 21.4387L1.01935 18.7265V17.0014H0.999552ZM1.92983 22.1766C1.81107 21.9972 1.79128 21.7678 1.86055 21.5584L2.51373 20.5712L5.80928 22.1766C5.21548 22.8547 4.76024 23.6325 4.47324 24.49L1.92983 22.1766ZM7.25418 22.1667L17.6851 13.7009C17.8336 13.5812 17.9029 13.3917 17.8633 13.2023L16.9429 8.98433C17.6258 9.41311 18.556 10.161 19.1993 11.3077C20.1395 12.9729 19.8525 15.1168 18.4967 16.5328L5.99731 29.7251C5.43321 28.8276 5.12642 27.7806 5.11652 26.6838C5.10662 24.9188 5.88845 23.2735 7.25418 22.1667ZM6.6109 30.5228L7.95683 29.1168L21.525 42.349L7.30366 31.1809C7.04635 30.9815 6.82862 30.7621 6.6109 30.5228ZM49.8193 31.1809L35.5979 42.349L49.1661 29.1168L50.5021 30.5328C50.2943 30.7621 50.0667 30.9815 49.8193 31.1809ZM51.1256 29.7251L38.6263 16.5228C37.2704 15.1068 36.9834 12.963 37.9236 11.2977C38.5768 10.151 39.507 9.40313 40.18 8.97436L39.2596 13.1923C39.2201 13.3818 39.2893 13.5712 39.4378 13.6909L49.8687 22.1567C51.2345 23.2635 52.0064 24.9088 51.9965 26.6738C51.9965 27.7806 51.6798 28.8276 51.1256 29.7251ZM55.2624 21.5584C55.3415 21.7578 55.3119 21.9872 55.1931 22.1766L52.6497 24.49C52.3627 23.6325 51.8975 22.8447 51.2938 22.1567L54.5003 20.4017L55.2624 21.5584ZM50.5417 21.4288C50.5219 21.4188 50.512 21.3989 50.4922 21.3889L40.3087 13.1125L41.3874 8.16667C41.5259 7.61823 41.7932 6.92023 42.2385 6.78063C42.9016 6.56125 44.0397 7.51852 44.4058 7.83761C45.158 8.46581 45.9299 9.26353 46.4643 9.84188H44.584C44.3069 9.84188 44.0892 10.0712 44.0892 10.3405C44.0892 10.6097 44.3168 10.839 44.584 10.839H48.0577C48.7504 10.839 49.4135 11.0484 49.9875 11.4473L54.5498 14.6182L54.1836 14.7279C54.0154 14.7778 53.8867 14.9174 53.8472 15.0869C53.8076 15.2564 53.8571 15.4459 53.9857 15.5655L55.4702 17.0014V18.7265L50.5417 21.4288Z" fill="#F2C41A"/>
<path d="M50.2149 14.8876L48.869 13.5314C48.7898 13.4517 48.6711 13.4018 48.5622 13.4018H46.1079C45.9594 13.4018 45.8803 13.5913 45.9792 13.7009L46.9491 14.718C47.0481 14.8277 47.2064 14.8576 47.345 14.8078L48.4039 14.389C48.4929 14.3491 48.5919 14.3591 48.681 14.3989L50.0863 15.0371H50.0962C50.1061 15.0371 50.1754 15.0571 50.2149 15.0072C50.2644 14.9574 50.2248 14.9075 50.2149 14.8876Z" fill="#F2C41A"/>
<path d="M26.6908 29.7849L25.5428 36.3162C25.5131 36.4658 25.5527 36.6153 25.6517 36.725C25.7507 36.8347 25.8892 36.9045 26.0377 36.9045H30.9661C31.1146 36.9045 31.2531 36.8347 31.3521 36.725C31.4511 36.6153 31.4907 36.4658 31.461 36.3162L30.3031 29.6951C31.2729 29.0769 31.8667 28 31.8667 26.8034C31.8667 24.8988 30.3229 23.3433 28.4326 23.3433C26.5424 23.3433 24.9985 24.8988 24.9985 26.8034C24.9886 28.0398 25.6418 29.1666 26.6908 29.7849ZM28.4227 24.3404C29.7687 24.3404 30.8573 25.4373 30.8573 26.7934C30.8573 27.7507 30.3624 28.5683 29.5212 28.9672C29.3233 29.0669 29.2046 29.2863 29.2441 29.5057L30.3624 35.8874H26.6315L27.7399 29.5854C27.7795 29.3561 27.6607 29.1267 27.4529 29.037C26.5622 28.6481 25.9882 27.7606 25.9882 26.7834C25.9783 25.4373 27.0768 24.3404 28.4227 24.3404Z" fill="#F2C41A"/>
<path d="M66.1981 37.144V27.1226H65.1787V26.2152H70.5228V27.1226H69.0483V31.4503H74.2934V27.1226H72.8288V26.2152H78.1234V27.1226H77.1337V37.144H78.1234V38.0514H72.8288V37.144H74.2934V32.3577H69.0483V37.144H70.5228V38.0514H65.1787V37.144H66.1981Z" fill="#1D1D1B"/>
<path d="M92.5427 37.144C94.4428 34.9104 94.9772 31.0813 94.9772 27.1226H93.9282V26.2152H102.38V27.1226H101.479V37.144H103.31V38.6796H102.469V38.0514H92.4635V38.6796H91.6223V37.144H92.5427ZM98.6488 27.1226H95.8283C95.8283 31.6397 95.0861 35.1497 93.6214 37.144H98.6488V27.1226Z" fill="#1D1D1B"/>
<path d="M133.811 37.144L138.601 31.3805L134.94 27.1226H134.029V26.2152H136.77V27.1226H136.088L140.779 32.5671V27.1226H140.205V26.2152H144.213V27.1226H143.639V32.5671L148.33 27.1226H147.647V26.2152H150.616V27.1226H149.478L145.816 31.3805L150.606 37.144H151.219V38.0514H147.538L143.757 33.5044H143.639V37.144H144.213V38.0514H140.205V37.144H140.779V33.5044H140.66L136.879 38.0514H133.198V37.144H133.811Z" fill="#1D1D1B"/>
<path d="M170.211 37.1441V28.5387L168.934 26.2053H172.25L176.871 34.5914H176.941L180.761 26.2053H184.591V27.1127H183.601V37.1341H184.591V38.0415H180.117V37.1341H180.751V28.419H180.682L176.307 38.0615H175.466L171.092 30.1441H171.042V37.154H172.091V38.0615H169.182V37.154H170.211V37.1441Z" fill="#1D1D1B"/>
<path d="M186.204 32.1084C186.204 28.1995 188.965 25.7964 192.864 25.7964C196.783 25.7964 199.505 28.0898 199.505 32.0385C199.505 35.9474 196.783 38.3505 192.864 38.3505C188.955 38.3505 186.204 36.0571 186.204 32.1084ZM196.486 32.2878C196.486 28.8676 194.636 26.7038 192.686 26.7038C190.855 26.7038 189.203 28.3092 189.203 31.9089C189.203 35.1098 190.746 37.4431 192.904 37.4431C194.755 37.4431 196.486 36.0371 196.486 32.2878Z" fill="#1D1D1B"/>
<path d="M219.614 37.144V27.1226H215.458V28.1098H214.617V26.2152H227.453V28.1098H226.611V27.1226H222.455V37.144H223.425V38.0514H218.645V37.144H219.614Z" fill="#1D1D1B"/>
<path d="M81.4189 37.124V27.1226H80.2017V26.2152H89.643V27.8206H88.7226V27.1226H84.2593V31.8092H86.9709V32.7166H84.2593V37.124H88.7226V36.3861H89.643V38.0314H80.2017V37.124H81.4189Z" fill="#1D1D1B"/>
<path d="M106.23 37.124V27.1226H105.012V26.2152H111.604C113.88 26.2152 115.493 27.0827 115.493 28.8078C115.493 29.805 114.503 31.2209 112.187 31.2907V31.4004C115.344 31.53 116.502 33.2651 116.502 34.6511C116.502 36.446 115.156 38.0215 111.237 38.0215H105.012V37.1141H106.23V37.124ZM112.484 28.9374C112.484 28.05 111.98 27.1226 110.426 27.1226H109.07V30.9018H110.347C111.93 30.8918 112.474 29.8249 112.484 28.9374ZM113.494 34.4018C113.494 33.0258 112.643 31.8092 110.545 31.8092H109.07V37.124H110.545C112.672 37.124 113.494 35.7579 113.494 34.4018Z" fill="#1D1D1B"/>
<path d="M118.996 37.124V27.1226H117.769V26.2152H123.014V27.1226H121.827V35.5087L127.062 27.1426V27.1226H125.904V26.2152H131.12V27.1226H129.902V37.124H131.12V38.0314H125.904V37.124H127.062V28.7579L121.827 37.124H122.985V38.0314H117.769V37.124H118.996Z" fill="#1D1D1B"/>
<path d="M154.634 37.124V27.1226H153.416V26.2152H158.661V27.1226H157.474V35.5087L162.709 27.1426V27.1226H161.551V26.2152H166.767V27.1226H165.549V37.124H166.767V38.0314H161.551V37.124H162.709V28.7579L157.474 37.124H158.632V38.0314H153.416V37.124H154.634Z" fill="#1D1D1B"/>
<path d="M208.144 25.7964C210.104 25.7964 211.519 26.5742 212.38 27.2821L212.202 29.8548H211.331C211.42 27.8904 210.49 26.6938 208.372 26.6938C206.046 26.6938 204.423 28.5086 204.423 31.8092C204.423 35.2593 206.343 37.3633 208.431 37.3633C209.708 37.3633 211.123 36.7451 211.915 36.0371L212.37 36.795C211.272 37.6824 209.955 38.3007 207.927 38.3007C203.889 38.3007 201.296 36.1069 201.296 31.9887C201.286 28.2793 203.948 25.7964 208.144 25.7964Z" fill="#1D1D1B"/>
<path d="M230.877 37.124V27.1226H229.659V26.2152H234.905V27.1226H233.717V35.5087L238.952 27.1426V27.1226H237.794V26.2152H243.01V27.1226H241.793V37.124H243.01V38.0314H237.794V37.124H238.952V28.7579L233.717 37.124H234.875V38.0314H229.659V37.124H230.877Z" fill="#1D1D1B"/>
<path d="M66.1783 20.7506V10.7192H65.1787V9.81183H74.8377V11.9457H73.9965V10.7292H69.0285V14.5184H70.4635C74.7685 14.5184 75.6295 16.9016 75.6295 18.2876C75.6295 20.0924 74.3726 21.6679 70.6911 21.6679H65.1787V20.7605H66.1783V20.7506ZM72.6209 18.0184C72.6209 16.6323 71.8688 15.4158 69.9983 15.4158H69.0186V20.7506H69.9983C71.8985 20.7506 72.6209 19.3845 72.6209 18.0184Z" fill="#1D1D1B"/>
<path d="M78.9151 20.7407V10.7094H77.9155V9.80194H82.6362V10.7094H81.7554V15.037H84.18C84.4473 11.5669 86.6839 9.45294 89.7815 9.45294C93.1067 9.45294 95.4324 11.7464 95.4324 15.6951C95.4324 19.6039 93.1166 22.0071 89.7815 22.0071C86.5156 22.0071 84.2196 19.7834 84.1504 15.9444H81.7653V20.7307H82.6461V21.6381H77.9254V20.7407H78.9151ZM89.8211 21.0997C91.167 21.0997 92.414 19.7136 92.414 15.9544C92.414 12.5142 91.0483 10.3703 89.6034 10.3703C88.2871 10.3703 87.149 11.9558 87.149 15.5754C87.149 18.7962 88.2475 21.0997 89.8211 21.0997Z" fill="#1D1D1B"/>
<path d="M111.277 15.7748C111.277 11.866 114.038 9.46283 117.937 9.46283C121.856 9.46283 124.578 11.7563 124.578 15.705C124.578 19.6138 121.856 22.017 117.937 22.017C114.038 22.007 111.277 19.7235 111.277 15.7748ZM121.569 15.9543C121.569 12.5341 119.719 10.3702 117.769 10.3702C115.938 10.3702 114.285 11.9757 114.285 15.5754C114.285 18.7762 115.829 21.1096 117.987 21.1096C119.837 21.0996 121.569 19.7036 121.569 15.9543Z" fill="#1D1D1B"/>
<path d="M98.9954 20.7307V10.7392H97.7781V9.83179H103.835C107.427 9.83179 109.1 11.6267 109.1 13.5113C109.1 16.1039 107.15 17.5198 103.112 17.5198H101.836V20.7307H103.013V21.6381H97.788V20.7307H98.9954ZM106.091 13.7506C106.091 12.2948 105.27 10.7392 103.142 10.7392H101.836V16.6224H103.142C105.23 16.6124 106.091 15.3261 106.091 13.7506Z" fill="#1D1D1B"/>
<path d="M65.5843 47.5542C65.4854 47.5243 65.4062 47.4844 65.3567 47.4445C65.327 47.3647 65.3171 47.255 65.3171 47.1154C65.3171 46.9459 65.3369 46.8163 65.3666 46.7066C65.5646 46.7365 65.7328 46.7565 65.8614 46.7565C66.0099 46.7565 66.1386 46.7166 66.2375 46.6468C66.3365 46.567 66.4256 46.4274 66.5047 46.218C66.5938 45.9986 66.6631 45.6895 66.7126 45.3006C66.7719 44.9117 66.8115 44.463 66.8313 43.9644L66.8412 43.765C66.8412 43.6553 66.8313 43.5656 66.8016 43.5157C66.7719 43.4559 66.7225 43.416 66.6433 43.3861C66.5641 43.3562 66.4354 43.3362 66.2672 43.3263C66.2375 43.2365 66.2177 43.1169 66.2177 42.9673C66.5641 42.9773 67.1975 42.9872 68.1377 42.9872C69.058 42.9872 69.6716 42.9773 69.9685 42.9673C69.9685 43.1268 69.9586 43.2465 69.9289 43.3263C69.7904 43.3362 69.6815 43.3562 69.6122 43.3961C69.543 43.4359 69.4935 43.4958 69.4638 43.5755C69.4341 43.6653 69.4143 43.7849 69.4143 43.9545V46.567C69.4143 46.7365 69.4341 46.8661 69.4638 46.9559C69.4935 47.0456 69.543 47.1055 69.6122 47.1354C69.6815 47.1753 69.7904 47.1952 69.9289 47.2052C69.9586 47.2949 69.9685 47.4146 69.9685 47.5641C69.6914 47.5542 69.3648 47.5442 68.9888 47.5442C68.5731 47.5442 68.2267 47.5542 67.9496 47.5641C67.9496 47.4046 67.9694 47.2849 67.9991 47.2052C68.1377 47.1952 68.2465 47.1753 68.3158 47.1354C68.3851 47.0955 68.4346 47.0357 68.4642 46.9559C68.4939 46.8661 68.5038 46.7465 68.5038 46.567V43.9445C68.5038 43.755 68.4939 43.6154 68.4741 43.5456C68.4544 43.4659 68.4049 43.406 68.3257 43.3761C68.2267 43.3263 68.0783 43.3063 67.8704 43.3063C67.6923 43.3063 67.5538 43.3362 67.4647 43.3761C67.3855 43.416 67.3459 43.4659 67.3261 43.5357C67.3063 43.6055 67.2866 43.7451 67.2767 43.9545C67.2074 44.8918 67.1282 45.6197 67.0391 46.1382C66.9501 46.6468 66.8115 47.0257 66.6433 47.265C66.475 47.5043 66.2375 47.614 65.9406 47.614C65.7922 47.604 65.6833 47.5841 65.5843 47.5542Z" fill="#B1B1B1"/>
<path d="M76.4606 47.5641C76.2627 47.5542 75.9559 47.5442 75.5205 47.5442C75.0553 47.5442 74.7287 47.5542 74.5407 47.5641C74.5407 47.4146 74.5605 47.2949 74.6001 47.2052C74.7287 47.1952 74.8178 47.1653 74.8673 47.1354C74.9267 47.1055 74.9564 47.0556 74.9564 46.9958C74.9564 46.926 74.9168 46.8262 74.8475 46.6866L74.6001 46.1582C73.8281 46.1582 73.1948 46.1681 72.7098 46.1881L72.5614 46.5371C72.4921 46.6866 72.4624 46.8063 72.4624 46.906C72.4624 46.9958 72.4921 47.0656 72.5515 47.1154C72.6109 47.1653 72.6999 47.1952 72.8286 47.2052C72.8682 47.3149 72.888 47.4345 72.888 47.5641C72.7197 47.5542 72.4624 47.5442 72.1259 47.5442C71.9775 47.5442 71.7697 47.5542 71.4827 47.5641C71.4827 47.4245 71.5025 47.3049 71.542 47.2151C71.6707 47.1952 71.7697 47.1354 71.8389 47.0456C71.9082 46.9559 72.0072 46.7764 72.1358 46.4972L73.6896 42.9772C73.7985 42.9573 73.9172 42.9473 74.0558 42.9473L75.7976 46.5271C75.8965 46.7166 75.9658 46.8562 76.0252 46.9459C76.0846 47.0356 76.1439 47.1054 76.1934 47.1453C76.2429 47.1852 76.3122 47.2052 76.3914 47.2151C76.4408 47.3149 76.4606 47.4345 76.4606 47.5641ZM74.4516 45.8092L73.9667 44.7821C73.8282 44.5129 73.7193 44.2436 73.6203 43.9744C73.5313 44.2337 73.4323 44.5029 73.3135 44.7821L72.8781 45.8092H74.4516Z" fill="#B1B1B1"/>
<path d="M80.6865 45.2905C80.8646 45.131 80.9537 44.8618 80.9537 44.4928C80.9537 44.1239 80.8646 43.8447 80.6766 43.6353C80.4886 43.4259 80.2016 43.3262 79.8156 43.3262C79.6968 43.3262 79.5781 43.3361 79.4593 43.366V46.4572C79.4593 46.6566 79.4791 46.7962 79.5286 46.9059C79.5781 47.0156 79.6474 47.0854 79.7463 47.1253C79.8453 47.1652 79.9838 47.1951 80.162 47.2051C80.1917 47.2848 80.2115 47.4045 80.2115 47.5641C79.964 47.5541 79.6078 47.5441 79.1327 47.5441C78.6082 47.5441 78.2222 47.5541 77.9946 47.5641C77.9946 47.3945 78.0045 47.2749 78.0342 47.2051C78.1728 47.1951 78.2816 47.1752 78.3509 47.1353C78.4202 47.0954 78.4697 47.0356 78.4994 46.9558C78.529 46.866 78.5488 46.7464 78.5488 46.5669V43.9444C78.5488 43.7749 78.529 43.6552 78.4994 43.5655C78.4697 43.4757 78.4202 43.4159 78.3509 43.386C78.2816 43.3561 78.1728 43.3262 78.0342 43.3162C78.0045 43.2264 77.9946 43.1068 77.9946 42.9572C78.2717 42.9672 78.6181 42.9772 79.0635 42.9772L79.6968 42.9672C79.8255 42.9672 79.9838 42.9572 80.162 42.9572C80.7855 42.9572 81.2308 43.0769 81.5178 43.3262C81.7949 43.5754 81.9434 43.8945 81.9434 44.2934C81.9434 44.5826 81.8741 44.8518 81.7454 45.0911C81.6069 45.3404 81.4089 45.5299 81.1516 45.6794C80.8844 45.829 80.5677 45.8988 80.2016 45.8988C79.9937 45.8988 79.8156 45.8689 79.677 45.829C79.6671 45.7792 79.6573 45.7293 79.6573 45.6994C79.6573 45.6296 79.677 45.5598 79.7067 45.49C79.7958 45.5099 79.9047 45.5199 80.0333 45.5199C80.2906 45.5299 80.5084 45.4501 80.6865 45.2905Z" fill="#B1B1B1"/>
<path d="M87.8316 46.9558C87.8613 47.0455 87.9108 47.1054 87.9801 47.1353C88.0494 47.1752 88.1582 47.1951 88.2968 47.2051C88.3265 47.2948 88.3364 47.4145 88.3364 47.5641C88.0593 47.5541 87.7327 47.5441 87.3566 47.5441C86.941 47.5441 86.5946 47.5541 86.3175 47.5641C86.3175 47.4245 86.3373 47.3048 86.367 47.2051C86.5055 47.1951 86.6144 47.1752 86.6836 47.1353C86.7529 47.0954 86.8024 47.0356 86.8321 46.9558C86.8618 46.866 86.8717 46.7464 86.8717 46.5669V44.3831L84.833 46.7065C84.8429 46.896 84.8825 47.0156 84.9517 47.0854C85.021 47.1552 85.1497 47.1951 85.3278 47.2051C85.3575 47.2749 85.3773 47.3945 85.3773 47.5641C85.1002 47.5541 84.7736 47.5441 84.3975 47.5441C83.9819 47.5441 83.6355 47.5541 83.3584 47.5641C83.3584 47.4145 83.3683 47.2948 83.398 47.2051C83.5365 47.1951 83.6454 47.1752 83.7147 47.1353C83.784 47.0954 83.8334 47.0356 83.8631 46.9558C83.8928 46.866 83.9126 46.7464 83.9126 46.5669V43.9444C83.9126 43.7749 83.8928 43.6552 83.8631 43.5655C83.8334 43.4757 83.784 43.4159 83.7147 43.386C83.6454 43.3561 83.5365 43.3262 83.398 43.3162C83.3683 43.2264 83.3584 43.1068 83.3584 42.9572C83.6256 42.9672 83.9621 42.9772 84.3777 42.9772C84.7439 42.9772 85.0804 42.9672 85.3773 42.9572C85.3773 43.027 85.3773 43.0868 85.3674 43.1566C85.3674 43.2165 85.3476 43.2763 85.3278 43.3162C85.1893 43.3262 85.0804 43.3461 85.0111 43.386C84.9418 43.4259 84.8924 43.4857 84.8627 43.5655C84.833 43.6552 84.8231 43.7749 84.8231 43.9444V46.1282L86.8618 43.7948C86.8519 43.6153 86.8222 43.4957 86.743 43.4358C86.6737 43.366 86.5451 43.3262 86.367 43.3162C86.3274 43.2264 86.3175 43.1068 86.3175 42.9572C86.5847 42.9672 86.9311 42.9772 87.3467 42.9772C87.7129 42.9772 88.0494 42.9672 88.3463 42.9572C88.3463 43.1168 88.3364 43.2364 88.3067 43.3162C88.1681 43.3262 88.0593 43.3461 87.99 43.386C87.9207 43.4259 87.8712 43.4857 87.8415 43.5655C87.8119 43.6552 87.7921 43.7749 87.7921 43.9444V46.5669C87.7822 46.7364 87.802 46.866 87.8316 46.9558Z" fill="#B1B1B1"/>
<path d="M90.88 47.3049C90.5138 47.1054 90.2268 46.8262 90.019 46.4673C89.8111 46.1083 89.7122 45.6994 89.7122 45.2408C89.7122 44.7422 89.8309 44.3234 90.0585 43.9744C90.2961 43.6254 90.6029 43.3661 90.9789 43.1866C91.3649 43.0071 91.7707 42.9274 92.216 42.9274C92.5129 42.9274 92.79 42.9573 93.0572 43.0171C93.3244 43.0769 93.5917 43.1667 93.8688 43.2764C93.8094 43.5356 93.7896 43.8846 93.7896 44.3234C93.6807 44.3732 93.5224 44.3932 93.2948 44.3932C93.2849 43.9744 93.1958 43.6852 93.0275 43.5157C92.8593 43.3561 92.602 43.2664 92.2754 43.2664C91.741 43.2664 91.3451 43.4359 91.0878 43.7749C90.8305 44.114 90.7018 44.5428 90.7018 45.0513C90.7018 45.4502 90.7711 45.7992 90.9097 46.1182C91.0482 46.4373 91.256 46.6866 91.5232 46.8661C91.7905 47.0456 92.117 47.1353 92.4832 47.1353C92.701 47.1353 92.9286 47.1054 93.1562 47.0456C93.3838 46.9858 93.6016 46.896 93.8094 46.7764C93.8391 46.8063 93.8787 46.8462 93.9083 46.896C93.938 46.9459 93.9578 46.9858 93.9677 47.0356C93.6906 47.2351 93.4135 47.3846 93.1265 47.4744C92.8395 47.5741 92.503 47.6239 92.1368 47.6239C91.6618 47.604 91.2461 47.5043 90.88 47.3049Z" fill="#B1B1B1"/>
<path d="M98.9159 45.2408C99.2326 45.4402 99.391 45.7493 99.391 46.1781C99.391 46.5969 99.2425 46.926 98.9357 47.1653C98.6289 47.4146 98.1737 47.5342 97.57 47.5342C96.6694 47.5342 95.9865 47.5442 95.5412 47.5542C95.5412 47.3847 95.551 47.265 95.5807 47.1952C95.7193 47.1852 95.8282 47.1653 95.8974 47.1254C95.9667 47.0855 96.0162 47.0257 96.0459 46.926C96.0756 46.8262 96.0954 46.6866 96.0954 46.5072V43.9345C96.0954 43.765 96.0756 43.6453 96.0459 43.5556C96.0162 43.4658 95.9667 43.406 95.8974 43.3761C95.8282 43.3462 95.7193 43.3163 95.5807 43.3063C95.551 43.2265 95.5312 43.1069 95.5312 42.9473C95.7985 42.9573 96.1844 42.9673 96.6793 42.9673C97.1543 42.9673 97.5106 42.9573 97.7481 42.9473C97.7481 43.1069 97.7283 43.2265 97.6986 43.3063C97.5205 43.3163 97.3819 43.3462 97.283 43.3861C97.184 43.426 97.1147 43.5057 97.0652 43.6054C97.0158 43.7151 96.996 43.8647 96.996 44.0542V44.9715C97.1939 44.9516 97.3819 44.9416 97.5601 44.9416C98.1539 44.9416 98.5992 45.0413 98.9159 45.2408ZM98.1638 46.9658C98.3122 46.8163 98.3815 46.5969 98.3815 46.3177C98.3815 45.9587 98.2825 45.7094 98.0846 45.5599C97.8867 45.4103 97.659 45.3305 97.3918 45.3305C97.283 45.3305 97.1543 45.3405 97.0059 45.3505V46.5371C97.0059 46.7864 97.0454 46.9658 97.1246 47.0556C97.2038 47.1453 97.3423 47.1952 97.5304 47.1952C97.8075 47.1852 98.0153 47.1154 98.1638 46.9658ZM101.014 46.9559C101.044 47.0456 101.093 47.1055 101.162 47.1354C101.232 47.1753 101.341 47.1952 101.479 47.2052C101.509 47.275 101.529 47.3946 101.529 47.5641C101.252 47.5542 100.925 47.5442 100.549 47.5442C100.133 47.5442 99.7868 47.5542 99.5097 47.5641C99.5097 47.4146 99.5196 47.2949 99.5493 47.2052C99.6879 47.1952 99.7967 47.1753 99.866 47.1354C99.9353 47.0955 99.9848 47.0356 100.014 46.9559C100.044 46.8661 100.064 46.7465 100.064 46.567V43.9445C100.064 43.775 100.044 43.6553 100.014 43.5656C99.9848 43.4758 99.9353 43.416 99.866 43.3861C99.7967 43.3562 99.6879 43.3262 99.5493 43.3163C99.5196 43.2265 99.5097 43.1069 99.5097 42.9573C99.7769 42.9673 100.123 42.9772 100.529 42.9772C100.895 42.9772 101.232 42.9673 101.529 42.9573C101.529 43.0271 101.529 43.0869 101.519 43.1567C101.519 43.2166 101.499 43.2764 101.479 43.3163C101.341 43.3262 101.232 43.3462 101.162 43.3861C101.093 43.426 101.044 43.4858 101.014 43.5656C100.984 43.6553 100.974 43.775 100.974 43.9445V46.567C100.965 46.7365 100.984 46.8661 101.014 46.9559Z" fill="#B1B1B1"/>
<path d="M105.428 47.2051C105.567 47.1951 105.675 47.1752 105.745 47.1353C105.814 47.0954 105.863 47.0356 105.893 46.9558C105.923 46.866 105.943 46.7464 105.943 46.5669V43.9444C105.943 43.7749 105.923 43.6452 105.893 43.5555C105.863 43.4658 105.814 43.4059 105.745 43.376C105.675 43.3461 105.567 43.3262 105.428 43.3162C105.398 43.2264 105.388 43.1068 105.388 42.9572C105.656 42.9672 106.319 42.9772 107.368 42.9772H108.328C109.337 42.9772 110 42.9672 110.297 42.9572C110.297 43.1168 110.287 43.2364 110.258 43.3162C110.119 43.3262 110.01 43.3461 109.941 43.376C109.872 43.4059 109.822 43.4658 109.792 43.5555C109.763 43.6452 109.743 43.7749 109.743 43.9444V46.5669C109.743 46.7364 109.763 46.866 109.792 46.9558C109.822 47.0455 109.872 47.1054 109.941 47.1353C110.01 47.1752 110.119 47.1951 110.258 47.2051C110.287 47.2948 110.297 47.4145 110.297 47.5641C110.01 47.5541 109.684 47.5441 109.317 47.5441C108.902 47.5441 108.555 47.5541 108.268 47.5641C108.268 47.4045 108.288 47.2848 108.318 47.2051C108.456 47.1951 108.565 47.1752 108.634 47.1353C108.704 47.0954 108.753 47.0356 108.783 46.9558C108.813 46.866 108.823 46.7464 108.823 46.5669V43.9544C108.823 43.7948 108.813 43.6752 108.783 43.5854C108.753 43.4957 108.704 43.4358 108.634 43.396C108.575 43.366 108.496 43.3461 108.387 43.3361C108.278 43.3262 108.09 43.3262 107.843 43.3262C107.585 43.3262 107.407 43.3262 107.298 43.3361C107.19 43.3461 107.11 43.366 107.051 43.396C106.972 43.4358 106.922 43.5056 106.903 43.5854C106.873 43.6752 106.863 43.7948 106.863 43.9544V46.5669C106.863 46.7364 106.873 46.866 106.903 46.9558C106.932 47.0455 106.982 47.1054 107.051 47.1353C107.12 47.1752 107.229 47.1951 107.368 47.2051C107.397 47.2749 107.417 47.3945 107.417 47.5641C107.14 47.5541 106.814 47.5441 106.437 47.5441C106.022 47.5441 105.675 47.5541 105.398 47.5641C105.379 47.4045 105.398 47.2848 105.428 47.2051Z" fill="#B1B1B1"/>
<path d="M115.889 46.4972C115.78 46.8063 115.701 47.1553 115.661 47.5542C115.216 47.5442 114.651 47.5442 113.969 47.5442C112.979 47.5442 112.296 47.5542 111.93 47.5641C111.93 47.3946 111.94 47.275 111.97 47.2052C112.108 47.1952 112.217 47.1753 112.286 47.1354C112.355 47.0955 112.405 47.0357 112.435 46.9359C112.464 46.8462 112.484 46.6966 112.484 46.5072V43.9345C112.484 43.765 112.464 43.6453 112.435 43.5556C112.405 43.4658 112.355 43.406 112.286 43.3761C112.217 43.3462 112.108 43.3163 111.97 43.3063C111.94 43.2265 111.93 43.1069 111.93 42.9473C112.266 42.9573 112.751 42.9673 113.395 42.9673C114.196 42.9673 114.889 42.9573 115.473 42.9473C115.522 43.4559 115.572 43.8248 115.631 44.0542C115.522 44.114 115.374 44.1439 115.186 44.1439C115.156 43.8846 115.057 43.6852 114.889 43.5356C114.721 43.3861 114.424 43.3063 114.018 43.3063H113.414V45.0713H113.761C114.048 45.0713 114.246 45.0314 114.355 44.9616C114.463 44.8818 114.523 44.7522 114.523 44.5428C114.642 44.5129 114.79 44.4929 114.958 44.4929C114.948 44.7123 114.938 44.9616 114.938 45.2408C114.938 45.5399 114.948 45.8092 114.958 46.0285C114.77 46.0285 114.632 46.0186 114.533 45.9886C114.513 45.7693 114.444 45.6197 114.335 45.5399C114.226 45.4602 114.028 45.4302 113.741 45.4302H113.395V46.5072C113.395 46.6966 113.414 46.8362 113.454 46.926C113.494 47.0157 113.553 47.0855 113.652 47.1254C113.741 47.1653 113.88 47.1852 114.058 47.1852H114.127C114.424 47.1852 114.651 47.1553 114.82 47.0955C114.988 47.0356 115.117 46.9459 115.206 46.8262C115.295 46.7066 115.374 46.5371 115.453 46.3177C115.641 46.3376 115.79 46.4074 115.889 46.4972Z" fill="#B1B1B1"/>
<path d="M120.095 45.2905C120.273 45.131 120.362 44.8618 120.362 44.4928C120.362 44.1239 120.273 43.8447 120.085 43.6353C119.897 43.4259 119.61 43.3262 119.224 43.3262C119.105 43.3262 118.986 43.3361 118.868 43.366V46.4572C118.868 46.6566 118.887 46.7962 118.937 46.9059C118.986 47.0156 119.056 47.0854 119.155 47.1253C119.253 47.1652 119.392 47.1951 119.57 47.2051C119.6 47.2848 119.62 47.4045 119.62 47.5641C119.372 47.5541 119.016 47.5441 118.541 47.5441C118.016 47.5441 117.63 47.5541 117.403 47.5641C117.403 47.3945 117.413 47.2749 117.442 47.2051C117.581 47.1951 117.69 47.1752 117.759 47.1353C117.828 47.0954 117.878 47.0356 117.908 46.9558C117.937 46.866 117.957 46.7464 117.957 46.5669V43.9444C117.957 43.7749 117.937 43.6552 117.908 43.5655C117.878 43.4757 117.828 43.4159 117.759 43.386C117.69 43.3561 117.581 43.3262 117.442 43.3162C117.413 43.2264 117.403 43.1068 117.403 42.9572C117.68 42.9672 118.026 42.9772 118.472 42.9772L119.105 42.9672C119.234 42.9672 119.392 42.9572 119.57 42.9572C120.194 42.9572 120.639 43.0769 120.926 43.3262C121.203 43.5754 121.352 43.8945 121.352 44.2934C121.352 44.5826 121.282 44.8518 121.154 45.0911C121.015 45.3404 120.817 45.5299 120.56 45.6794C120.293 45.829 119.976 45.8988 119.61 45.8988C119.402 45.8988 119.224 45.8689 119.085 45.829C119.075 45.7792 119.065 45.7293 119.065 45.6994C119.065 45.6296 119.085 45.5598 119.115 45.49C119.204 45.5099 119.313 45.5199 119.442 45.5199C119.689 45.5299 119.917 45.4501 120.095 45.2905Z" fill="#B1B1B1"/>
<path d="M126.715 46.4972C126.607 46.8063 126.527 47.1553 126.488 47.5542C126.042 47.5442 125.478 47.5442 124.796 47.5442C123.806 47.5442 123.123 47.5542 122.757 47.5641C122.757 47.3946 122.777 47.275 122.796 47.2052C122.935 47.1952 123.044 47.1753 123.113 47.1354C123.182 47.0955 123.232 47.0357 123.262 46.9359C123.291 46.8462 123.301 46.6966 123.301 46.5072V43.9345C123.301 43.765 123.281 43.6453 123.262 43.5556C123.232 43.4658 123.182 43.406 123.113 43.3761C123.044 43.3462 122.935 43.3163 122.796 43.3063C122.767 43.2265 122.757 43.1069 122.757 42.9473C123.093 42.9573 123.578 42.9673 124.222 42.9673C125.023 42.9673 125.716 42.9573 126.3 42.9473C126.349 43.4559 126.399 43.8248 126.458 44.0542C126.349 44.114 126.201 44.1439 126.013 44.1439C125.983 43.8846 125.884 43.6852 125.716 43.5356C125.548 43.3861 125.261 43.3063 124.845 43.3063H124.241V45.0713H124.588C124.875 45.0713 125.073 45.0314 125.181 44.9616C125.29 44.8818 125.35 44.7522 125.35 44.5428C125.468 44.5129 125.617 44.4929 125.795 44.4929C125.775 44.7123 125.775 44.9616 125.775 45.2408C125.775 45.5399 125.785 45.8092 125.795 46.0285C125.607 46.0285 125.468 46.0186 125.37 45.9886C125.35 45.7693 125.28 45.6197 125.172 45.5399C125.063 45.4602 124.865 45.4302 124.578 45.4302H124.231V46.5072C124.231 46.6966 124.251 46.8362 124.291 46.926C124.33 47.0157 124.39 47.0855 124.489 47.1254C124.578 47.1653 124.716 47.1852 124.894 47.1852H124.964C125.261 47.1852 125.488 47.1553 125.657 47.0955C125.825 47.0356 125.953 46.9459 126.042 46.8262C126.132 46.7066 126.211 46.5371 126.29 46.3177C126.458 46.3376 126.607 46.4074 126.715 46.4972Z" fill="#B1B1B1"/>
<path d="M132.317 46.2179C132.317 46.6168 132.158 46.9358 131.842 47.1851C131.525 47.4245 131.03 47.5441 130.377 47.5441C129.417 47.5441 128.705 47.5541 128.21 47.5641C128.21 47.3945 128.22 47.2749 128.249 47.2051C128.388 47.1951 128.497 47.1752 128.566 47.1353C128.635 47.0954 128.695 47.0356 128.714 46.9358C128.744 46.8361 128.764 46.6965 128.764 46.517V43.9444C128.764 43.7749 128.744 43.6552 128.714 43.5655C128.685 43.4757 128.635 43.4159 128.566 43.386C128.497 43.3561 128.388 43.3262 128.249 43.3162C128.22 43.2364 128.21 43.1168 128.21 42.9572C128.408 42.9672 128.665 42.9772 128.992 42.9772C129.259 42.9772 129.457 42.9772 129.605 42.9672L130.238 42.9572C130.803 42.9572 131.228 43.037 131.515 43.1866C131.812 43.3361 131.96 43.5954 131.96 43.9544C131.96 44.2435 131.861 44.4829 131.664 44.6823C131.466 44.8817 131.198 45.0014 130.852 45.0512C131.832 45.1111 132.317 45.5 132.317 46.2179ZM130.704 43.5256C130.506 43.386 130.268 43.3162 130.001 43.3162C129.902 43.3162 129.793 43.3262 129.674 43.3561V44.9814H129.912C130.634 44.9814 130.991 44.7122 130.991 44.1538C131 43.8746 130.902 43.6652 130.704 43.5256ZM131.04 46.9558C131.208 46.8062 131.287 46.5868 131.287 46.3076C131.287 45.6695 130.812 45.3404 129.862 45.3404H129.684V46.537C129.684 46.7264 129.704 46.866 129.744 46.9558C129.783 47.0455 129.843 47.1054 129.942 47.1452C130.031 47.1752 130.159 47.1951 130.328 47.1951C130.634 47.1851 130.872 47.1153 131.04 46.9558Z" fill="#B1B1B1"/>
<path d="M137.74 46.4972C137.631 46.8063 137.552 47.1553 137.513 47.5542C137.067 47.5442 136.503 47.5442 135.82 47.5442C134.831 47.5442 134.148 47.5542 133.781 47.5641C133.781 47.3946 133.791 47.275 133.821 47.2052C133.96 47.1952 134.068 47.1753 134.138 47.1354C134.207 47.0955 134.257 47.0357 134.286 46.9359C134.316 46.8462 134.336 46.6966 134.336 46.5072V43.9345C134.336 43.765 134.316 43.6453 134.286 43.5556C134.257 43.4658 134.207 43.406 134.138 43.3761C134.068 43.3462 133.96 43.3163 133.821 43.3063C133.791 43.2265 133.781 43.1069 133.781 42.9473C134.118 42.9573 134.603 42.9673 135.246 42.9673C136.048 42.9673 136.741 42.9573 137.315 42.9473C137.364 43.4559 137.414 43.8248 137.473 44.0542C137.364 44.114 137.216 44.1439 137.028 44.1439C136.998 43.8846 136.899 43.6852 136.731 43.5356C136.562 43.3861 136.266 43.3063 135.86 43.3063H135.256V45.0713H135.602C135.889 45.0713 136.087 45.0314 136.196 44.9616C136.305 44.8818 136.365 44.7522 136.365 44.5428C136.483 44.5129 136.632 44.4929 136.8 44.4929C136.79 44.7123 136.78 44.9616 136.78 45.2408C136.78 45.5399 136.79 45.8092 136.8 46.0285C136.612 46.0285 136.473 46.0186 136.374 45.9886C136.355 45.7693 136.285 45.6197 136.177 45.5399C136.068 45.4602 135.87 45.4302 135.593 45.4302H135.246V46.5072C135.246 46.6966 135.266 46.8362 135.306 46.926C135.345 47.0157 135.405 47.0855 135.504 47.1254C135.593 47.1653 135.731 47.1852 135.909 47.1852H135.979C136.275 47.1852 136.503 47.1553 136.671 47.0955C136.84 47.0356 136.968 46.9459 137.057 46.8262C137.146 46.7066 137.226 46.5371 137.305 46.3177C137.483 46.3376 137.631 46.4074 137.74 46.4972Z" fill="#B1B1B1"/>
<path d="M141.936 45.2905C142.114 45.131 142.204 44.8618 142.204 44.4928C142.204 44.1239 142.114 43.8447 141.926 43.6353C141.738 43.4259 141.451 43.3262 141.065 43.3262C140.947 43.3262 140.828 43.3361 140.709 43.366V46.4572C140.709 46.6566 140.729 46.7962 140.778 46.9059C140.828 47.0156 140.897 47.0854 140.996 47.1253C141.095 47.1652 141.234 47.1951 141.412 47.2051C141.442 47.2848 141.451 47.4045 141.451 47.5641C141.204 47.5541 140.848 47.5441 140.373 47.5441C139.848 47.5441 139.462 47.5541 139.235 47.5641C139.235 47.3945 139.245 47.2749 139.274 47.2051C139.413 47.1951 139.522 47.1752 139.591 47.1353C139.66 47.0954 139.71 47.0356 139.739 46.9558C139.769 46.866 139.779 46.7464 139.779 46.5669V43.9444C139.779 43.7749 139.759 43.6552 139.739 43.5655C139.71 43.4757 139.66 43.4159 139.591 43.386C139.522 43.3561 139.413 43.3262 139.274 43.3162C139.245 43.2264 139.235 43.1068 139.235 42.9572C139.512 42.9672 139.858 42.9772 140.303 42.9772L140.937 42.9672C141.065 42.9672 141.224 42.9572 141.402 42.9572C142.025 42.9572 142.471 43.0769 142.758 43.3262C143.035 43.5754 143.183 43.8945 143.183 44.2934C143.183 44.5826 143.114 44.8518 142.985 45.0911C142.847 45.3404 142.649 45.5299 142.392 45.6794C142.124 45.829 141.818 45.8988 141.441 45.8988C141.234 45.8988 141.056 45.8689 140.917 45.829C140.907 45.7792 140.897 45.7293 140.897 45.6994C140.897 45.6296 140.917 45.5598 140.947 45.49C141.036 45.5099 141.145 45.5199 141.273 45.5199C141.54 45.5299 141.758 45.4501 141.936 45.2905Z" fill="#B1B1B1"/>
<path d="M147.904 45.4103C148.151 45.6097 148.27 45.8889 148.27 46.2379C148.27 46.6667 148.092 46.9958 147.746 47.2351C147.399 47.4744 146.914 47.594 146.301 47.594C145.638 47.594 145.113 47.4544 144.737 47.1752C144.787 46.9359 144.816 46.6966 144.816 46.4373L144.806 46.218C144.935 46.1681 145.113 46.1382 145.351 46.1482C145.39 46.5171 145.489 46.7764 145.648 46.9459C145.806 47.1154 146.043 47.1952 146.36 47.1952C146.667 47.1952 146.904 47.1154 147.063 46.9658C147.221 46.8163 147.3 46.5969 147.3 46.3277C147.3 45.6496 146.815 45.3106 145.836 45.3106C145.816 45.2607 145.816 45.2009 145.816 45.1311C145.816 45.0413 145.836 44.9715 145.855 44.9117C146.281 44.9117 146.588 44.8319 146.786 44.6824C146.984 44.5228 147.083 44.3134 147.083 44.0342C147.083 43.7949 147.013 43.6054 146.875 43.4758C146.736 43.3362 146.548 43.2764 146.301 43.2764C145.786 43.2764 145.479 43.5755 145.38 44.1738C145.351 44.1738 145.311 44.1838 145.262 44.1838C145.113 44.1838 144.984 44.1539 144.856 44.114C144.886 43.9345 144.895 43.765 144.895 43.6054C144.895 43.4658 144.886 43.3362 144.876 43.2165C145.361 43.0071 145.865 42.8975 146.41 42.8975C146.944 42.8975 147.36 42.9872 147.647 43.1767C147.934 43.3661 148.072 43.6254 148.072 43.9544C148.072 44.2336 147.963 44.473 147.746 44.6624C147.538 44.8519 147.241 44.9815 146.885 45.0314C147.32 45.0912 147.666 45.2108 147.904 45.4103Z" fill="#B1B1B1"/>
<path d="M153.703 46.4972C153.594 46.8063 153.515 47.1553 153.476 47.5542C153.03 47.5442 152.466 47.5442 151.783 47.5442C150.794 47.5442 150.111 47.5542 149.745 47.5641C149.745 47.3946 149.764 47.275 149.784 47.2052C149.923 47.1952 150.032 47.1753 150.101 47.1354C150.17 47.0955 150.22 47.0357 150.249 46.9359C150.279 46.8462 150.289 46.6966 150.289 46.5072V43.9345C150.289 43.765 150.269 43.6453 150.249 43.5556C150.22 43.4658 150.17 43.406 150.101 43.3761C150.032 43.3462 149.923 43.3163 149.784 43.3063C149.755 43.2265 149.745 43.1069 149.745 42.9473C150.081 42.9573 150.566 42.9673 151.209 42.9673C152.011 42.9673 152.704 42.9573 153.288 42.9473C153.337 43.4559 153.386 43.8248 153.446 44.0542C153.337 44.114 153.189 44.1439 153.001 44.1439C152.971 43.8846 152.872 43.6852 152.704 43.5356C152.535 43.3861 152.248 43.3063 151.833 43.3063H151.229V45.0713H151.575C151.862 45.0713 152.06 45.0314 152.169 44.9616C152.278 44.8818 152.337 44.7522 152.337 44.5428C152.456 44.5129 152.605 44.4929 152.783 44.4929C152.763 44.7123 152.763 44.9616 152.763 45.2408C152.763 45.5399 152.773 45.8092 152.783 46.0285C152.595 46.0285 152.456 46.0186 152.357 45.9886C152.337 45.7693 152.268 45.6197 152.159 45.5399C152.05 45.4602 151.853 45.4302 151.566 45.4302H151.219V46.5072C151.219 46.6966 151.239 46.8362 151.279 46.926C151.318 47.0157 151.378 47.0855 151.476 47.1254C151.566 47.1653 151.704 47.1852 151.882 47.1852H151.952C152.248 47.1852 152.476 47.1553 152.644 47.0955C152.812 47.0356 152.941 46.9459 153.03 46.8262C153.119 46.7066 153.198 46.5371 153.278 46.3177C153.456 46.3376 153.604 46.4074 153.703 46.4972Z" fill="#B1B1B1"/>
<path d="M159.305 46.2179C159.305 46.6168 159.146 46.9358 158.83 47.1851C158.513 47.4245 158.018 47.5441 157.365 47.5441C156.405 47.5441 155.693 47.5541 155.198 47.5641C155.198 47.3945 155.208 47.2749 155.237 47.2051C155.376 47.1951 155.485 47.1752 155.554 47.1353C155.623 47.0954 155.683 47.0356 155.702 46.9358C155.732 46.8361 155.752 46.6965 155.752 46.517V43.9444C155.752 43.7749 155.732 43.6552 155.702 43.5655C155.673 43.4757 155.623 43.4159 155.554 43.386C155.485 43.3561 155.376 43.3262 155.237 43.3162C155.208 43.2364 155.198 43.1168 155.198 42.9572C155.396 42.9672 155.653 42.9772 155.98 42.9772C156.247 42.9772 156.445 42.9772 156.593 42.9672L157.227 42.9572C157.791 42.9572 158.216 43.037 158.503 43.1866C158.8 43.3361 158.949 43.5954 158.949 43.9544C158.949 44.2435 158.85 44.4829 158.652 44.6823C158.454 44.8817 158.187 45.0014 157.84 45.0512C158.82 45.1111 159.305 45.5 159.305 46.2179ZM157.702 43.5256C157.504 43.386 157.266 43.3162 156.999 43.3162C156.9 43.3162 156.791 43.3262 156.672 43.3561V44.9814H156.91C157.632 44.9814 157.989 44.7122 157.989 44.1538C157.998 43.8746 157.9 43.6652 157.702 43.5256ZM158.028 46.9558C158.196 46.8062 158.276 46.5868 158.276 46.3076C158.276 45.6695 157.801 45.3404 156.85 45.3404H156.672V46.537C156.672 46.7264 156.692 46.866 156.732 46.9558C156.771 47.0455 156.831 47.1054 156.93 47.1452C157.019 47.1752 157.147 47.1951 157.316 47.1951C157.632 47.1851 157.87 47.1153 158.028 46.9558Z" fill="#B1B1B1"/>
<path d="M162.026 47.2949C161.65 47.0955 161.363 46.8163 161.155 46.4573C160.948 46.0983 160.849 45.6995 160.849 45.2408C160.849 44.7821 160.957 44.3733 161.175 44.0243C161.393 43.6753 161.69 43.3961 162.066 43.2066C162.442 43.0072 162.868 42.9174 163.343 42.9174C163.827 42.9174 164.253 43.0171 164.639 43.2066C165.025 43.406 165.312 43.6753 165.53 44.0143C165.738 44.3633 165.846 44.7621 165.846 45.2208C165.846 45.6696 165.738 46.0784 165.53 46.4374C165.322 46.7963 165.025 47.0855 164.649 47.2949C164.273 47.5043 163.837 47.604 163.352 47.604C162.848 47.604 162.402 47.5043 162.026 47.2949ZM164.213 46.9758C164.421 46.8163 164.58 46.5969 164.698 46.3277C164.807 46.0485 164.867 45.7394 164.867 45.3904C164.867 45.0015 164.797 44.6525 164.659 44.3334C164.52 44.0143 164.322 43.765 164.065 43.5755C163.808 43.3861 163.531 43.2963 163.204 43.2963C162.937 43.2963 162.699 43.3661 162.491 43.5157C162.284 43.6653 162.115 43.8747 162.007 44.1439C161.888 44.4131 161.828 44.7223 161.828 45.0812C161.828 45.4602 161.898 45.8191 162.026 46.1482C162.155 46.4772 162.343 46.7365 162.59 46.9359C162.838 47.1354 163.135 47.2351 163.481 47.2351C163.758 47.2151 164.006 47.1354 164.213 46.9758Z" fill="#B1B1B1"/>
<path d="M171.705 46.9558C171.735 47.0456 171.784 47.1054 171.854 47.1353C171.923 47.1752 172.032 47.1951 172.17 47.2051C172.2 47.2949 172.21 47.4145 172.21 47.5641C171.933 47.5541 171.606 47.5441 171.23 47.5441C170.814 47.5441 170.468 47.5541 170.191 47.5641C170.191 47.4245 170.211 47.3048 170.24 47.2051C170.379 47.1951 170.488 47.1752 170.557 47.1353C170.626 47.0954 170.676 47.0356 170.706 46.9558C170.735 46.8661 170.745 46.7464 170.745 46.5669V44.3832L168.706 46.7065C168.716 46.896 168.756 47.0157 168.825 47.0855C168.895 47.1553 169.023 47.1951 169.211 47.2051C169.241 47.2749 169.251 47.3946 169.251 47.5641C168.974 47.5541 168.647 47.5441 168.271 47.5441C167.855 47.5441 167.509 47.5541 167.232 47.5641C167.232 47.4145 167.252 47.2949 167.272 47.2051C167.41 47.1951 167.519 47.1752 167.588 47.1353C167.657 47.0954 167.707 47.0356 167.737 46.9558C167.766 46.8661 167.776 46.7464 167.776 46.5669V43.9444C167.776 43.7749 167.756 43.6553 167.737 43.5655C167.707 43.4758 167.657 43.4159 167.588 43.386C167.519 43.3561 167.41 43.3262 167.272 43.3162C167.242 43.2265 167.232 43.1068 167.232 42.9572C167.499 42.9672 167.845 42.9772 168.251 42.9772C168.617 42.9772 168.954 42.9672 169.251 42.9572C169.251 43.027 169.251 43.0869 169.241 43.1567C169.241 43.2165 169.221 43.2763 169.201 43.3162C169.063 43.3262 168.954 43.3461 168.885 43.386C168.815 43.4259 168.766 43.4857 168.736 43.5655C168.706 43.6553 168.697 43.7749 168.697 43.9444V46.1282L170.735 43.7949C170.725 43.6154 170.696 43.4957 170.616 43.4359C170.547 43.3661 170.419 43.3262 170.24 43.3162C170.211 43.2265 170.191 43.1068 170.191 42.9572C170.458 42.9672 170.805 42.9772 171.22 42.9772C171.586 42.9772 171.923 42.9672 172.22 42.9572C172.22 43.1168 172.2 43.2364 172.18 43.3162C172.042 43.3262 171.933 43.3461 171.863 43.386C171.794 43.4259 171.745 43.4857 171.715 43.5655C171.685 43.6553 171.675 43.7749 171.675 43.9444V46.5669C171.656 46.7364 171.675 46.8661 171.705 46.9558ZM168.627 42.3689C168.37 42.1994 168.241 41.9701 168.241 41.6609C168.41 41.6111 168.578 41.5812 168.776 41.5812C168.815 41.5812 168.875 41.5812 168.974 41.5911C169.013 41.8404 169.102 42.0299 169.221 42.1396C169.34 42.2493 169.518 42.3091 169.746 42.3091C169.973 42.3091 170.151 42.2493 170.26 42.1396C170.369 42.0299 170.438 41.8404 170.458 41.5911C170.547 41.5812 170.616 41.5812 170.676 41.5812C170.874 41.5812 171.042 41.6111 171.181 41.651C171.181 41.9601 171.042 42.1894 170.775 42.359C170.508 42.5285 170.132 42.6082 169.676 42.6082C169.231 42.6182 168.885 42.5384 168.627 42.3689Z" fill="#B1B1B1"/>
</g>
<defs>
<clipPath id="clip0">
<rect width="243" height="49" fill="white"/>
</clipPath>
</defs>
</svg>
