<svg width="98" height="70" viewBox="0 0 98 70" fill="none" xmlns="http://www.w3.org/2000/svg">
<path d="M14.946 63.732L25.662 69.372C37.506 55.554 45.12 37.506 45.12 24.252C45.12 9.306 35.532 0 21.15 0C10.152 0 0 6.48599 0 19.176C0 31.584 10.998 38.352 22.56 38.352C21.714 47.376 20.304 52.17 14.946 63.732Z" fill="#E5E5E5" fill-opacity="0.4"/>
<path d="M67.7399 63.732L78.4559 69.372C90.2999 55.554 97.9139 37.506 97.9139 24.252C97.9139 9.306 88.3259 0 73.9439 0C62.9459 0 52.7939 6.48599 52.7939 19.176C52.7939 31.584 63.7919 38.352 75.3539 38.352C74.5079 47.376 73.0979 52.17 67.7399 63.732Z" fill="#E5E5E5" fill-opacity="0.4"/>
</svg>
