<svg width="46" height="46" viewBox="0 0 46 46" fill="none" xmlns="http://www.w3.org/2000/svg">
<path d="M30.3393 5.53034C30.3393 2.4809 27.8584 0 24.809 0H21.191C18.1416 0 15.6607 2.4809 15.6607 5.53034V8.94157H0V23.6202H1.13708V46H44.9146V23.6202H46V8.94157H30.3393V5.53034ZM16.9011 5.53034C16.9011 4.39326 17.3663 3.30787 18.1416 2.53258C18.9685 1.70562 20.0022 1.29213 21.1393 1.29213H24.809C25.9461 1.29213 27.0315 1.7573 27.8067 2.53258C28.6337 3.35955 29.0472 4.39326 29.0472 5.53034V8.94157H16.9011V5.53034ZM43.6225 44.7079H2.37753V23.6202H19.0202V29.4607H26.9798V23.6202H43.6225V44.7079ZM25.7393 24.5506V28.2202H20.2607V24.5506H25.7393ZM20.2607 23.2584V20.5191H25.6876V23.2584H20.2607ZM44.7079 10.2337V22.3798H26.9798V19.227H19.0202V22.3798H1.29213V10.2337H44.7079Z" fill="#0C466C" stroke="#0C466C"/>
</svg>
