<svg width="23" height="23" viewBox="0 0 23 23" fill="none" xmlns="http://www.w3.org/2000/svg">
<rect x="0.375" y="0.375" width="22.25" height="22.25" stroke="#F3C61C" stroke-width="0.75"/>
<path d="M18.9209 15.1281C18.9033 15.0881 18.8857 15.0542 18.8711 15.0265C18.6104 14.5335 18.1123 13.9296 17.3799 13.2117L17.3652 13.1963L17.3564 13.187L17.3477 13.1778H17.3389C17.0049 12.845 16.7939 12.6201 16.7061 12.503C16.5449 12.2843 16.5068 12.0624 16.5977 11.8375C16.6592 11.668 16.8936 11.3106 17.3008 10.7622C17.5146 10.4726 17.6846 10.2384 17.8076 10.0628C18.707 8.80258 19.0996 7.9984 18.9795 7.64715L18.9326 7.56396C18.9004 7.51466 18.8213 7.46844 18.6895 7.42839C18.5605 7.38833 18.3936 7.37909 18.1885 7.40682L15.9385 7.42223C15.9033 7.4099 15.8506 7.4099 15.7832 7.42531C15.7158 7.44071 15.6807 7.44996 15.6807 7.44996L15.6426 7.47153L15.6104 7.49617C15.584 7.51158 15.5547 7.54239 15.5254 7.58245C15.4932 7.6225 15.4697 7.6718 15.4463 7.72726C15.2002 8.3897 14.9219 9.00593 14.6113 9.57594C14.418 9.91487 14.2422 10.2107 14.0811 10.4602C13.9199 10.7098 13.7852 10.8916 13.6738 11.0118C13.5654 11.1288 13.4658 11.2243 13.3779 11.2952C13.29 11.3661 13.2227 11.3969 13.1758 11.3846C13.1289 11.3722 13.085 11.363 13.0439 11.3507C12.9707 11.3014 12.9121 11.2336 12.8682 11.1504C12.8242 11.0641 12.7949 10.9594 12.7773 10.83C12.7627 10.7006 12.7539 10.5896 12.751 10.4972C12.748 10.4048 12.751 10.2723 12.7539 10.1028C12.7598 9.93335 12.7627 9.81935 12.7627 9.75773C12.7627 9.54821 12.7656 9.32329 12.7744 9.07988C12.7832 8.83647 12.7891 8.64236 12.7949 8.50062C12.8008 8.35889 12.8037 8.20792 12.8037 8.0477C12.8037 7.88748 12.7949 7.76423 12.7773 7.67488C12.7598 7.58553 12.7305 7.49617 12.6953 7.41298C12.6602 7.32671 12.6045 7.26201 12.5342 7.21579C12.4639 7.16957 12.376 7.1326 12.2734 7.10487C11.998 7.04017 11.6465 7.00319 11.2187 6.99703C10.249 6.98471 9.62793 7.05249 9.35254 7.19422C9.24414 7.25585 9.14453 7.33596 9.05664 7.44071C8.96289 7.56088 8.95117 7.62558 9.01855 7.63791C9.33203 7.6872 9.55176 7.80429 9.68359 7.99224L9.73047 8.09083C9.76563 8.1617 9.80371 8.28803 9.83887 8.46981C9.87402 8.6516 9.89746 8.85187 9.90918 9.07064C9.93555 9.47118 9.93555 9.81319 9.90918 10.0967C9.88281 10.3801 9.85937 10.602 9.83594 10.7622C9.8125 10.9224 9.77734 11.0487 9.73047 11.1473C9.68359 11.2459 9.65137 11.3075 9.63672 11.3291C9.62207 11.3507 9.60742 11.3661 9.59863 11.3692C9.53125 11.3969 9.46094 11.4092 9.3877 11.4092C9.31445 11.4092 9.22656 11.3722 9.12109 11.2952C9.01563 11.2182 8.91016 11.1134 8.7959 10.9779C8.68457 10.8423 8.55859 10.6574 8.41797 10.414C8.27734 10.1737 8.13086 9.88714 7.98145 9.56054L7.85547 9.32329C7.77637 9.16923 7.6709 8.94739 7.53613 8.65468C7.40137 8.36197 7.28125 8.07851 7.17578 7.80429C7.13477 7.69029 7.07031 7.60093 6.98828 7.54239L6.9502 7.51774C6.92383 7.49617 6.88281 7.47153 6.82422 7.44688C6.76563 7.42223 6.70703 7.40374 6.64551 7.3945L4.50684 7.4099C4.28711 7.4099 4.14062 7.46228 4.06152 7.56704L4.02344 7.61634C4.00879 7.64407 4 7.6872 4 7.74883C4 7.81045 4.01465 7.8844 4.04688 7.97067C4.36035 8.74095 4.7002 9.48659 5.06641 10.2045C5.43262 10.9224 5.75195 11.4986 6.02441 11.9361C6.29395 12.3736 6.57227 12.7865 6.85352 13.1778C7.13477 13.566 7.32227 13.8156 7.41309 13.9265C7.50391 14.0374 7.57715 14.1175 7.62695 14.173L7.82324 14.3702C7.94922 14.5027 8.13086 14.6598 8.37402 14.8416C8.61719 15.0265 8.88379 15.2052 9.17969 15.3839C9.47266 15.5626 9.81543 15.7074 10.208 15.8183C10.5977 15.9292 10.9785 15.9755 11.3477 15.9539H12.2471C12.4287 15.9385 12.5664 15.8769 12.6602 15.7721L12.6924 15.7321C12.7129 15.6982 12.7334 15.6489 12.751 15.5811C12.7686 15.5133 12.7773 15.4363 12.7773 15.3562C12.7715 15.122 12.7891 14.9094 12.8271 14.7184C12.8652 14.5304 12.9092 14.3887 12.959 14.2901C13.0088 14.1946 13.0645 14.1145 13.126 14.0467C13.1875 13.982 13.2314 13.9419 13.2578 13.9265C13.2842 13.9142 13.3047 13.9019 13.3193 13.8988C13.4453 13.8556 13.5918 13.8988 13.7617 14.0251C13.9316 14.1545 14.0898 14.3116 14.2393 14.5027C14.3887 14.6906 14.5674 14.9032 14.7754 15.1405C14.9834 15.3746 15.165 15.5503 15.3232 15.6673L15.4785 15.7659C15.584 15.8306 15.7188 15.8923 15.8857 15.9477C16.0527 16.0032 16.1992 16.0155 16.3223 15.9878L18.3203 15.9539C18.5166 15.9539 18.6719 15.92 18.7803 15.8522C18.8887 15.7844 18.9561 15.7074 18.9766 15.6273C18.9971 15.5441 19 15.4517 18.9795 15.3469C18.9561 15.2422 18.9385 15.1682 18.9209 15.1281Z" stroke="#F3C61C" stroke-width="0.75"/>
</svg>
